<mxfile host="app.diagrams.net" modified="2021-08-19T15:53:09.005Z" agent="5.0 (Windows NT 10.0; Win64; x64) AppleWebKit/537.36 (KHTML, like Gecko) Chrome/92.0.4515.131 Safari/537.36" etag="1Jx0I6zWHDIPs8GpQW9u" version="14.9.5" type="github">
  <diagram id="C5RBs43oDa-KdzZeNtuy" name="Page-1">
    <mxGraphModel dx="1278" dy="1748" grid="1" gridSize="10" guides="1" tooltips="1" connect="1" arrows="1" fold="1" page="1" pageScale="1" pageWidth="827" pageHeight="1169" math="0" shadow="0">
      <root>
        <mxCell id="WIyWlLk6GJQsqaUBKTNV-0" />
        <mxCell id="WIyWlLk6GJQsqaUBKTNV-1" parent="WIyWlLk6GJQsqaUBKTNV-0" />
        <mxCell id="WIyWlLk6GJQsqaUBKTNV-2" value="" style="rounded=0;html=1;jettySize=auto;orthogonalLoop=1;fontSize=11;endArrow=block;endFill=0;endSize=8;strokeWidth=1;shadow=0;labelBackgroundColor=none;edgeStyle=orthogonalEdgeStyle;" parent="WIyWlLk6GJQsqaUBKTNV-1" source="WIyWlLk6GJQsqaUBKTNV-3" target="WIyWlLk6GJQsqaUBKTNV-6" edge="1">
          <mxGeometry relative="1" as="geometry" />
        </mxCell>
        <mxCell id="WIyWlLk6GJQsqaUBKTNV-3" value="Check in 0-18 Data table&amp;nbsp;" style="rounded=1;whiteSpace=wrap;html=1;fontSize=12;glass=0;strokeWidth=1;shadow=0;" parent="WIyWlLk6GJQsqaUBKTNV-1" vertex="1">
          <mxGeometry x="160" y="80" width="120" height="40" as="geometry" />
        </mxCell>
        <mxCell id="WIyWlLk6GJQsqaUBKTNV-4" value="Yes" style="rounded=0;html=1;jettySize=auto;orthogonalLoop=1;fontSize=11;endArrow=block;endFill=0;endSize=8;strokeWidth=1;shadow=0;labelBackgroundColor=none;edgeStyle=orthogonalEdgeStyle;" parent="WIyWlLk6GJQsqaUBKTNV-1" source="WIyWlLk6GJQsqaUBKTNV-6" edge="1">
          <mxGeometry y="20" relative="1" as="geometry">
            <mxPoint as="offset" />
            <mxPoint x="220" y="290" as="targetPoint" />
          </mxGeometry>
        </mxCell>
        <mxCell id="WIyWlLk6GJQsqaUBKTNV-5" value="No" style="edgeStyle=orthogonalEdgeStyle;rounded=0;html=1;jettySize=auto;orthogonalLoop=1;fontSize=11;endArrow=block;endFill=0;endSize=8;strokeWidth=1;shadow=0;labelBackgroundColor=none;" parent="WIyWlLk6GJQsqaUBKTNV-1" source="WIyWlLk6GJQsqaUBKTNV-6" target="WIyWlLk6GJQsqaUBKTNV-7" edge="1">
          <mxGeometry y="10" relative="1" as="geometry">
            <mxPoint as="offset" />
          </mxGeometry>
        </mxCell>
        <mxCell id="WIyWlLk6GJQsqaUBKTNV-6" value="if Present?" style="rhombus;whiteSpace=wrap;html=1;shadow=0;fontFamily=Helvetica;fontSize=12;align=center;strokeWidth=1;spacing=6;spacingTop=-4;" parent="WIyWlLk6GJQsqaUBKTNV-1" vertex="1">
          <mxGeometry x="170" y="170" width="100" height="80" as="geometry" />
        </mxCell>
        <mxCell id="WIyWlLk6GJQsqaUBKTNV-7" value="Show Screen to capture Info" style="rounded=1;whiteSpace=wrap;html=1;fontSize=12;glass=0;strokeWidth=1;shadow=0;" parent="WIyWlLk6GJQsqaUBKTNV-1" vertex="1">
          <mxGeometry x="320" y="190" width="120" height="40" as="geometry" />
        </mxCell>
        <mxCell id="WIyWlLk6GJQsqaUBKTNV-11" value="Show screen with Prepopulated data" style="rounded=1;whiteSpace=wrap;html=1;fontSize=12;glass=0;strokeWidth=1;shadow=0;" parent="WIyWlLk6GJQsqaUBKTNV-1" vertex="1">
          <mxGeometry x="170" y="290" width="120" height="40" as="geometry" />
        </mxCell>
        <mxCell id="WIyWlLk6GJQsqaUBKTNV-12" value="Screen for Webinar specific data" style="rounded=1;whiteSpace=wrap;html=1;fontSize=12;glass=0;strokeWidth=1;shadow=0;" parent="WIyWlLk6GJQsqaUBKTNV-1" vertex="1">
          <mxGeometry x="170" y="380" width="170" height="60" as="geometry" />
        </mxCell>
        <mxCell id="rxBr7AJf67-IRz6fNQBS-0" value="" style="shape=image;verticalLabelPosition=bottom;labelBackgroundColor=#ffffff;verticalAlign=top;aspect=fixed;imageAspect=0;image=data:image/png,iVBORw0KGgoAAAANSUhEUgAAA3EAAAJ0CAYAAAC8zqpLAAAgAElEQVR4Aezd3+v9xr3v9/V36frAhl4V9v+ggm+yOSUHNrkouSi+sAuLNGySQgxNSnYgJNlszEoxMU6D3dSOsY9z0nxTlBxcNwYn1MnB53Snu7tlylvSWxqNZvRr6ceM9Fxgf9ZnLWk08xh91ndeS9Lo9sqbL5m/+cFf8R8G7APsA+wD7APJ7APybxcPBBBAAAEEripwkwDHAwEEEEAAgZQE+Lcrpd6irggggAACawsQ4tYWpTwEEEAAgc0FCHGbE7MBBBBAAIGIBQhxEXcOVUMAAQQQ8AsQ4vwuvIoAAgggcA0BQtw1+plWIoAAAqcSIMSdqjtpDAIIIIDATAFC3EwwFkcAAQQQOF6AEHd8H1ADBBBAAIHjBAhxx9mzZQQQQACBhQKEuIVwrIYAAgggcAoBQtwpupFGIIAAAtcSIMRdq79pLQIIIIBAV4AQ1/XgNwQQQACBBAQIcQl0ElVEAAEEENhMgBC3GS0FI4AAAghsJUCI20qWchFAAAEEUhAgxKXQS9QRAQQQQKAjQIjrcPALAggggMDFBAhxF+twmosAAgicQYAQd4ZepA0IIIAAAksFCHFL5VgPAQQQQOAwAULcYfRsGAEEEEAgAgFCXASdQBUQQAABBOYJEOLmebE0AggggMC5BAhx5+pPWoMAAghcQoAQd4luppEIIIAAAgEBQlwAhpcRQAABBOIVIMTF2zfUDAEEEEBgewFC3PbGbAEBBBBAYGUBQtzKoBSHAAIIIJCUACEuqe6isggggAACIkCIYz9AAAEEELiyACHuyr1P2xFAAIFEBQhxiXYc1UYAAQQQWEWAELcKI4UggAACCOwpQIjbU5ttIYAAAgjEJkCIi61HqA8CCCCAwKgAIW6UiAUQQAABBE4sQIg7cefSNAQQQOCsAoS4s/Ys7UIAAQQQmCJAiJuixDIIIIAAAlEJEOKi6g4qgwACCCCwswAhbmdwNocAAggg8LwAIe55Q0pAAAEEEEhXgBCXbt9RcwQQQOCyAoS4y3Y9DUcAAQQQMMYQ4tgNEEAAAQSSEyDEJddlVBgBBBBAYEUBQtyKmBSFAAIIILCPACFuH2e2ggACCCAQp8B1QlxxN9ntZm75I86emFurpe0pClO421pallvOmX7HxN+b6pLd+/uRf400Xo3t72KJ85J10ugdby0JcV4WXkQAAQQQuIjASiHuYXIJSMH/cnN4dNIBztMh7mHumbY1M/mjF4k8u05hHrmuczPZfco6nmLsl5a055HXfeT0x5Ky7Lp4n1tOmbM9a/ninpV1WsXEKvfpp5uYPF2r4wtQl9EQN/aZcDNP/ymupbHy34Xu0/J5uLiNk50thCXrWKun9pQQl1qPUV8EEEAAgTUF1g9xWWay3n/3J0JcUYemzDyVfXSAs3hUpezu4DQcUHQN0wwSqyC3SmBZ0h6thzsAX1JW07jQE8cp4K4D3lVMQlVZ8vomJksqEtk66uLuQ71qav9nJstzk3v+m/T9R6/cDV5Y9e9CP6/qL20C+/1oKyY7WyUtWcdaPbWnhLjUeoz6IoAAAgisKbByiJsQaGbXXgdFsYU4GZhWA7WxcVp1FC4zeb7iUScdsI1tfIr3mmU126sH8RLoyyO0/v4jxDVgaTzRfWVyiNviM2EnKm3rnL+xZp28PjthYfu1nFFny2LJOtbqqT0lxKXWY9QXAQQQQGBNAULcbE09wpCbh36DPzTIswZWjzVPHdRyh7Y9tW1rltVsU0Pc3Wi7b54BKSGuAUvjie4rnr7sNsD6O+m+kc5v2tYZf2O6P8sqegr1jNVbG932qHO7ilmyjrV6ak8Jcan1GPVFAAEEEFhT4LAQVzzuJm+uLZMjWpnJ74/OZAk6CPJda+cOjIpHbjK7vMwpTwc45YqFuddHxcqys3zGqZr24HT8KKE9qNPnoVMHK5PqaJ22OZPryXyX0A22J3CtXmcdazcKvV4vMqWvrNLqpz6n/jVCQZOhgKz1dQe49eulb/Ho9XHjWDw6+16Weybp0G1495eA71yvTn2tv4ds5PTjQq6x1COc9Sm6oX24s42+SfgU5cI87nl9FLX6+8zk71NdXPveDmD3f+/N/gsj9ZzVd1L6AqPepEfaVvfDpl/7+hX9PKiPvuk+PGi1xHnmOh3b8H425+/ct2yWdz+/pywTpJzwBiFuAhKLIIAAAgicVuCQEKcDdwluer1MdcrdzdhHa8pBQN4OJHXZPL93gk0b9vrlNeMvHZBZp/eV1+lkGpr8p/v1e747ONW2+IPZ9GW1HAlvTTutUNq0QyvkaU+1nrbHM4GKruMWFnpdxsL10cOxvtJqtT+7bW+uC3QGtFp+z08HwG5dZQNaX6csfV0c9BTOqo+roHO75eZ+ryd3kZAvy6lxoKybtb+M+s71qtvR1vdW12fgFLxHPcuq7CdZfa3Z0D7c20bV7nxoHdMeRSq/XJHr2Zrla0vXq+34+pnT/733nReC9VzQdwuNng5xvX1WQ134s8X+7Op+HoWdZ6/Ts+3vZ/p3OOnvXNtpfX6X+4e9T0xZxtkF5v5KiJsrxvIIIIAAAmcSWDnEtSGqHJDoZAbN1+gDA3DTzuDYHbePDIR0sOCZAVFCYLPpeiBTHuFyvzHWoNLdcKCfncFpU65n4F3XTQOKDpT092YD2oZb/6ibHGGsjso55TfbrW6b0DlYN7aO204tK/S6PTgrKx3qq6ZFEgOca4K0H7vhctTErZNsQuvr1ktfr28l0Zq02y5Dcufwk9bTGWgHyyoTznCfuPUK7dv2Nnrr2JbWczni7HyJUZHU4d31srcxdb8P7j9q1f2yxaqd9VSX9X8m3N3paoP1XNB3S41Cdu7rVivtp1W46u5Hwf1bVlzivGQd29a3n+n7vfd8f+faH9122g7GTFmmu8aS3whxS9RYBwEEEEDgLAIrhzj91tz5aQ2C9Ftk66XWUgcTnTeHBwSD5bUlhwf+soxutzeIsQvQ5zo4bUOVvw79eocGdP71dXvtUZEuS31Exltn3bZz+qK2s1OQ1X7n9cF6hcpqqt13apwlrNbLhUyaAa5Tp3I13bbb9tDrZRMDIcd6r7OpgbLaQWrXd7aXbsPyaPjmPtGyOo2w+ta1kvJ1Hec9bUfvy4aBdfrV1f53Pgvq25D0yg7UpdrkzL7rV6Z6RbcRMpr6urf8ur2OZchYiljivGSdpg6B/UzLdJtfNrNnpp8thDjvbsCLCCCAAAII7CSwcohrB+f++usAwDplUI/WlT/rwVpnIKTr+AYNQ+85NegNRuz3AwMwe5HmuQ5Orbbqt+N2vT3b8weW8TZ41/OU31QxNEAMreN9Xes1p686NXCOxFXv6YBRT13ztk0WVVPfyFLra3vLOvq6b526vF54sEJc572hsry+C7xGtmFr9p7LNV9yXWnz9xMIOoPb8O332g7f35tl7Nr3Kuj5O+ktY70wVM+5fafFPms0VCfdhv4M1lE9u4G//SJgjrOWNWcdq898fxfNUbMZf+f6t1meTinXSSqC9XPKMtbiS55yJG6JGusggAACCJxF4LAQV50i6P+W3r4ubniwM2OgODgg8w1mQ13s22Z/cKVhxR43+QOLr7zutnU9DT7lu4PtkTxTDeonBRNvWdqmQB/pjd2Dg/lQu/T1aiDqrac0UAeBNqCyaH3dbevrvnWCg+yZVnUd+vVe4DVUX21r76czKY/2g/502z64jbovOo7ajplBoVdP7Wfry47eMtYLQ/Wc23cSTOyJi9RGf041GqqTVXV5qn/vzXWKTbiW6wnrv6HOdpc4L1lneoib/plsTG/SEs8ETFOWcRhn/UqIm8XFwggggAACJxM4KMQFBohe3KGBy9B7TmGDAzLfYNZZv/nVPzjVQX0ZtHRbncFxICw034SHTbTsSYGsrmczqLSv/9J6dQaToUHeDNvGxn7id5IltD1ipc87bZOFIg9xfd8FXqH+sBmd57pd+aKjud6zQq0mc5nUt1qob78faYfW2dm3tcT2Z7j/22WsZ1quW39ZZGaIW81oqE5W1ZsjwBoSgz/tQLvEeck6ob9vbcBImbpY6Gc9C2gVAAOfYVOWCZU/8DohbgCHtxBAAAEETi+wc4hrv7H2jdX82sODDB2wjZY3OCDzDWb9telP2FEvp+WXMyB6joJZ4cUNLMNt0PY7p2Pp9rwNn7lOoKzheoV89PWhQby+lzWzRbomzcDYFxa0vu57+rrPZGYQaLbvK6sJ3t0+me01VF9l7PzUfvUMlkNlhV4vy/Xv94Pt0PJc+0495RftYzu49BZqX9Byfd6z+m5Fo6E6tTUPfxHRLKN1mrG/6LYd50V9o2X5bK2jiIG3m1YMPdEvY4bKmLLM0Dbc9whxrgi/I4AAAghcSWD3EKffqndPmWzJOzNK1i8PDVx0YOArr3g82qMVgwMZ/2C2rZX9LDw41XpW30r3B69a115g0aNOQ7NTOoO5JmTIt/7urINaXmgdd6QVsgmVU3P4+qqVCjuVy2jZ9VGLnkkTApzAIvd40yMdU9snG6y3199Oe2Sw856azPHVNrn1CnnpNtz+aBGdZxoGHBNr9svOKbey9uA2Avt9qB1alpgE2thWWPup/3fQLmM907J9FrP6bkWjoTo1VQ9tr1mgfKJ/+53+WeK8ZJ2xdoTKrJvQ/TuXeyz2Z9HVz76q+6Ys0/VZ8hshboka6yCAAAIInEVg/xBnffMrYae9hqSemOHW/bZaoJsBkNwQXK41kXt86fSG1lER3z2OmuUGBzKBway3lwcGpzoYqgf+7urajk5YqBfSQVBpotfT6LU0N3fQ3g7OM+s+ZmpThci+Y3BAP2DTqZfel8y63qjxdRvbhLDQIF4Hv9X1QsMmOk19vY9om90gMdCOpSFulu/cfXuovj3P6gXdh9p9vXvT705IkFUGtxHa7+2+af/myv1K9gHZL137Xn3170T7rr6nne7beW7sM30H61n/Xfn2EfWw39PXnjYatKsbrMvM8GjbvcR5wTpax/Afa3NN3/hnsvar9dmtn1ONwZRlejvM7BcIcbPJWAEBBBBA4EQCh4Q48ZP7nzU3Wi6PrGRloHt4pzqTAyltyCtv2tyZEa0wj7ve4LmeRECC3v1hmsUGBzKhwayvp3WA4gsn+p4ndFlh1B5w2lvwmnjuCVauU7enLEuOTulAqjxK4gyQdSMhg9Dr9XreepXfxje6ugXrp1r4nLTge31TbgmcvrLcftU+DfTXUDtmBgENFbN8tVlT9+2h+lqS7tPC2dfli5CHHqF0B+qD2wg4lhuUe4TZf3NiL31Uh4hmwO7WTn/X/g9PjNP5Oxiq59y+K//Wup8Hi4yG6lQ3UwNjpy1K4PzUL0S6yy5xnrnOhHZIVSf/nRcPZ+IYCerWZ21V2Pgyjs/cXwlxc8VYHgEEEEDgTAIrhbgzkdAWBBBAAIHYBQhxsfcQ9UMAAQQQ2FKAELelLmUjgAACCGwiQIjbhJVCEUAAAQQSESDEJdJRVBMBBBBAoBUgxLUWPEMAAQQQuJ4AIe56fU6LEUAAgeQFCHHJdyENQAABBBB4QoAQ9wQeqyKAAAIIHCNAiDvGna0igAACCMQhQIiLox+oBQIIIIDADAFC3AwsFkUAAQQQOJ0AIe50XUqDEEAAgfMLEOLO38e0EAEEEEAgLECIC9vwDgIIIIBApAKEuEg7hmohgAACCOwiQIjbhZmNIIAAAgisKUCIW1OTshBAAAEEUhMgxKXWY9QXAQQQQMAQ4tgJEEAAAQSuLECIu3Lv03YEEEAgUQFCXKIdR7URQAABBFYRIMStwkghCCCAAAJ7ChDi9tRmWwgggAACsQkQ4mLrEeqDAAIIIDAqQIgbJWIBBBBAAIETCxDiTty5RzeteOQmu93MrfwvM/mjOLpK222/uFdtzR/bbYOSEUCgESDENRQ8QQABBBC4oAAh7oKdvkuTNdTcMpPlucnzzGR3Qtz69g+TlyE5N0PxsbhnZZg+dR+sj0uJEQsQ4iLuHKqGAAIIILC5ACFuc+JrbkBDw3kOTBXmnslRxcx4s6iG1t0bTIi75l8YrSbEsQ8ggAACCFxZgBB35d7fsO2PvDqNcvdMs1mbCHGb0VIwAgsECHEL0FgFAQQQQOA0AoS403RlXA0hxO3VHxyJ20ua7cQlQIiLqz+oDQIIIIDAvgKEuH29T781PY2ymsxEJzWRn/U1W/Vph+W1WcXd5OUpijdzy+6da7qKh7xXXcelZWVZbrxzo3TKfJh7bq1nr1M82u3dbibL72bKVXoaSLUe9s/mSGPndMqiVwfvKZj13lC11bbKTH5/TKqbMc+FON+2s7y/bd9y3jp2+iLcv6f/Q6CBmwsQ4jYnZgMIIIAAAhELEOIi7pwkqybhK89NVoczCV7ye67BQAf5skw9c2W1bDsxhx0Eq0lR8k74aoKTAvXKzKptakC85eZ+z6tZMrPqPa2fhMexIFcGGLu+ZXukTfc2VGqIy7K6XVoHDZT+a+natuoEMK3LlLo9FeIetUkz+Yw4Z2Wgtk1m1bHXF7d6X2j7V7uNnwg8I0CIe0aPdRFAAAEEUhcgxKXeg5HWX49ehQJXeTTLF6CaYNE/6ia3LKiOgjmBQAOUhEINi6WLXsdWHeXqzsyoR7D84arPqmUFlg/WwZgmBLkYuk7PoTBBv17FtB2OibOc1qE1GGmPrj+3jrq89EWvXVooPxF4XoAQ97whJSCAAAIIpCtAiEu376KueTCENIN8f+gIrle31vu+lukJDRpeJNy5D33P85a7qDFmJPQM1MEE3vO2Rbes64xWbtsQN7uOWm89fVbbw08EVhYgxK0MSnEIIIAAAkkJEOKS6q50Khsc/Osg3xtORoKSRCnf/c6GyqyP3rVHoFpDb1nt286zkboN1UGvW+uETC1Prs3TU07tn/VpmJ11nCqVvy4NccaY5simnMr5MIV9DmVZ9oI6Djr46s9rCCwTIMQtc2MtBBBAAIFzCBDiztGP0bViWYgbDyQavDpH1oaCQwIhzp4opfd8yxAnobicQMaaVMWeCKY5+mi9X1/H2KmnXcehvohuL6VCKQsQ4lLuPeqOAAIIIPCsACHuWUHW9wosC3F65Cdw3dkpj8SF2+qF7b2owXe4nGB/aHmFXIfnTsIy3h+6evOTENdQ8GRbAULctr6UjgACCCAQtwAhLu7+SbZ2wdAwMsgPrldKaKi4mc7ZmENlRnskTs5mrI5wddqyoMe1HN8po1Vx04KeLKtHOrVOWrb+Plq9ob4YXZkFEJguQIibbsWSCCCAAALnEyDEna9Po2hRcPA/NshvrtMamJ3SPn1PWjtU5mohbiR0DdXBe02cdU2a2566B+VUR+998dwebswyk7srFA9z11stdJKY3DOvb9zrNy17ah0HHdyK8zsCywUIccvtWBMBBBBAIH0BQlz6fRhlC3phQGs5YZCv68p1V82kHxpEbp7TBofKXDHE6VGq2629B1yTi4bqEApxZY5rrzdr76mnpzU6RxzV0POzrVtVXib3q2vMfNP969E5uY9bPaGKLu8Etk5/6LLNqZdOHQcdPBXnJQQWChDiFsKxGgIIIIDAKQQIcafoxvgaoQP/JuRoFScO8uWecJ0QUt6QOnBkaqjMFUOcNKG9bkzCUm7uOqPjUB0GQpyU6W1reZRMC1e84Z/VJCVtACwnH5Gbmz8K/w3N5SidFcYknJazVHo2M7mOgw6egnkJgYUChLiFcKyGAAIIIHAKAULcKbqRRiCAAALXEiDEXau/aS0CCCCAQFeAENf14DcEEEAAgQQECHEJdBJVRAABBBDYTIAQtxktBSOAAAIIbCVAiNtKlnIRQAABBFIQIMSl0EvUEQEEEECgI0CI63DwCwIIIIDAxQQIcRfrcJqLAAIInEGAEHeGXqQNCCCAAAJLBQhxS+VYDwEEEEDgMAFC3GH0bBgBBBBAIAIBQlwEnUAVEEAAAQTmCRDi5nmxNAIIIIDAuQQIcefqT1qDAAIIXEKAEHeJbqaRCCCAAAIBAUJcAIaXEUAAAQTiFSDExds31AwBBBBAYHsBQtz2xmwBAQQQQGBlAULcyqAUhwACCCCQlAAhLqnuorIIIIAAAiJAiGM/QAABBBC4sgAh7sq9T9sRQACBRAUIcYl2HNVGAAEEEFhFgBC3CiOFIIAAAgjsKUCI21ObbSGAAAIIxCZAiIutR6gPAggggMCoACFulIgFEEAAAQROLECIO3Hn0jQEEEDgrAKEuLP2LO1CAAEEEJgiQIibosQyCCCAAAJRCRDiouoOKoMAAgggsLMAIW5ncDaHAAIIIPC8ACHueUNKQAABBBBIV4AQl27fUXMEEEDgsgKEuMt2PQ1HAAEEEDDGEOLYDRBAAAEEkhMgxCXXZVQYAQQQQGBFAULcipgUhQACCCCwjwAhbh9ntoIAAgggEKcAIS7OfqFWCCCAAAIDAoS4ARzeQgABBBA4vQAh7vRdTAMRQACB8wkQ4s7Xp7QIAQQQQGC6ACFuuhVLIoAAAghEIkCIi6QjqAYCCCCAwCEChLhD2NkoAggggMAzAoS4Z/RYFwEEEEAgdQFCXOo9SP0RQACBCwoQ4i7Y6TQZAQQQQKARIMQ1FDxBAAEEEEhFgBCXSk9RTwQQQACBLQQIcVuoUiYCCCCAwKYChLhNeSkcAQQQQCByAUJc5B1E9RBAAAEE+gKEuL4JryCAAAIIXEfg9rf/+NdG/jHkPwzYB9gH2AfYB1LZB+TfLh4IIIAAAghcVeB21YbTbgQQQAABBBBAAAEEEEAgRQFCXIq9Rp0RQAABBBBAAAEEEEDgsgKEuMt2PQ1HAAEEEEAAAQQQQACBFAUIcSn2GnVGAAEEEEAAAQQQQACBywoQ4i7b9TQcAQQQQAABBBBAAAEEUhQgxKXYa9QZAQQQQAABBBBAAAEELitAiLts19NwBBBAAAEEEEAAAQQQSFGAEJdir1FnBBBAAAEEEEAAAQQQuKwAIe6yXU/DEUAAAQQQQAABBBBAIEUBQlyKvUadEUAAAQQQQAABBBBA4LIChLjLdj0NRwABBBBAAAEEEEAAgRQFCHEp9hp1RgABBBBAAAEEEEAAgcsKEOIu2/U0HAEEEEAAAQQQQAABBFIUIMSl2GvUGQEEEEAAAQQQQAABBC4rQIi7bNfTcAQQQAABBBBAAAEEEEhRgBCXYq9RZwQQQAABBBBAAAEEELisACHusl1PwxFAAAEEEEAAAQQQQCBFAUJcir1GnRFAAAEEEEAAAQQQQOCyAoS4y3Y9DUcAAQQQQAABBBBAAIEUBQhxKfYadUYAAQQQQAABBBBAAIHLChDiLtv1NBwBBBBAAAEEEEAAAQRSFCDEpdhr1BkBBBBAAAEEEEAAAQQuK0CIu2zX03AEEEAAAQQQQAABBBBIUYAQl2KvUWcEEEAAAQQQQAABBBC4rAAh7rJdT8MRQAABBBBAAAEEEEAgRYHbK2++ZP7mB3/FfxiwD7APsA+wDySzD8i/XTwQQAABBBC4qsBNAhwPBBBAAAEEUhLg366Ueou6IoAAAgisLUCIW1uU8hBAAAEENhcgxG1OzAYQQAABBCIWIMRF3DlUDQEEEEDAL0CI87vwKgIIIIDANQQIcdfoZ1qJAAIInEqAEHeq7qQxCCCAAAIzBQhxM8FYHAEEEEDgeAFC3PF9QA0QQAABBI4TIMQdZ8+WEUAAAQQWChDiFsKxGgIIIIDAKQQIcafoRhqBAAIIXEuAEHet/qa1CCCAAAJdAUJc14PfEEAAAQQSECDEJdBJVBEBBBBAYDMBQtxmtBSMAAIIILCVACFuK1nKRQABBBBIQYAQl0IvUUcEEEAAgY4AIa7DwS8IIIAAAhcTIMRdrMNpLgIIIHAGAULcGXqRNiCAAAIILBUgxC2VYz0EEEAAgcMECHGH0bNhBBBAAIEIBAhxEXQCVUAAAQQQmCdAiJvnxdIIIIAAAucSIMSdqz9pDQIIIHAJAULcJbqZRiKAAAIIBAQIcQEYXkYAAQQQiFeAEBdv31AzBBBAAIHtBQhx2xuzBQQQQACBlQUIcSuDUhwCCCCAQFIChLikuovKIoAAAgiIACGO/QABBBBA4MoChLgr9z5tRwABBBIVIMQl2nFUGwEEEEBgFQFC3CqMFIIAAgggsKcAIW5PbbaFAAIIIBCbACEuth6hPggggAACowKEuFEiFkAAAQQQOLEAIe7EnUvTEEAAgbMKEOLO2rO0CwEEEEBgigAhbooSyyCAAAIIRCVAiIuqO6gMAggggMDOAoS4ncHZHAIIIIDA8wKEuOcNKQEBBBBAIF0BQly6fUfNEUAAgcsKEOIu2/U0HAEEEEDAGEOIYzdAAAEEEEhOgBCXXJdRYQQQQACBFQUIcStiUhQCCCCAwD4ChLh9nNkKAggggECcAmmFuOJustvN3PLH8Zpr1KUoTHF8S6hBigJL9r8l66Rgo+3K7pP+nopHXn2OyGfJLTP546C/Qq33Hp9ne25rp32GELcTNJtBAAEEEIhSII4QVzzMPc+sgdXN3LLMZPnddMZXMQ1Enq3LIze3chCZmy0jafG4mzyTwar+J66PSYNd/x5bmEeeVeUNDj4L87jnJutt2+lT/0bqVx8mb+qt9a9+Zllm8vsz7RjccPxvLtn/lqwTv4Qx2q4pIU6XvcnfQW5y+dy5E+JS6Ga3joQ4V4TfEUAAAQSuJHB4iCvudSCoB+syOJf/2tBhhRwdgA2Gh52679m6aIibMvBc2KTWVges1hGIJdstHt1AGOyHwtyb8JaZvBwsW9u+WX062DYNcW39y7I6+8daR1K0zpnZZky/cvlL9r8l6wz2TyRvarsm7NP6NxHcdSc1aaW+1Ho/V5m6xiN1WnVbk5A2X4gQtzkxG0AAAQQQiFjg2BCnQeZ2857SVJSh4d4eqYppIBJTXXw7mNZPAlPnQIMO9m6zjkDo4Lc8/SyvjyKGBp/ar55B9SOvj6RNSlhjwXoAACAASURBVEoa4nyhT470tWE/VBUfjf81dSHE+X0iflX3dc/+5tZa97/n9peV9hWt93OVqZs4UqdVt+WqHvM7Ie4Yd7aKAAIIIBCHwIEhTgfoEuAmYsQ0EImpLh4+Hax6TxXTuk8Y9FZFV30lp7eWeVBDWqDjNPB5tz2ybrcpuo/4Qly1pG7rNrkt3S20v40MgtsFFz5buXztw0AfeCu5ZB1vQZG9qO2asA/o38Uctn5rV+pLrfdzlamrN1KnVbfVFzniFULcEepsEwEEEEAgFoHjQpwO5icMvBqszkCkKK+ja067zPLB0+B814YNXVNVTn7QnBJYXaPXWb5Tl6aGxuikCWPtCq1fv14GoPpawaltbGsxMqAzGo6mH3UqCutwnvZdaPA58L6GLm/AaxtQP9N6hkOcadri+TKgqK7fKyfDaU7X7e8nOrBvnK3r8DpNnFie24xNyu/sP+7fQuAU0846bi2Nmfs30ilhjs3ifby+zrLpH7me7WEKbdfA35zud/0+bvetKe2f3JdGPJ1rQt3rOLXe5U7m9mF/P+14W79MqtMT25riYlVnt6eEuN2o2RACCCCAQIQCh4U4HXhMG8zXcjoQkevmyoFcfb1Vc42UP5S0A7j22qpmYO8Z+Gnd5NTBavKD9nquZlCvdWleMGWAqwaJ/np0+t+3vixQvy7bndPGTtlNsGkHqN33x0Jed+nebwMhrVpWw5ecstlOPiKD2tLHY97bRvmClhNqR7013ymaj3om09vNZJlMYJGbPLCflIPUxvvW9HluT6wzozy3LZuUr/uP9begE3VoUOn9bek69j5bV3bu30injXNtFu7j9t9ltz/rSW+G9iuZ4Ef6uP5iptkn6kl+prZ/Ul+WHwU6Ec+EzxCrD7vtmvA5UobFum36RUV9DWpn/9W+n7mtqS6d/WGnXwhxO0GzGQQQQACBKAUOCnEaIjxHT4aYdCAigxVnhsVmsOEOUHWd3gBPjtJUA63OKk3Q6AcHGcA115dpubqy/n6bNvDSsNa7XUJTzow2umZNGf02VIsu9NftqJG2XV+3f3YmQWknq2lOybSXDT6fFuK8fS9HQewQVm/Du2z5npoE+m92eW6jVi6/6eP+fiJHg6sg5/S/ruP2m74+9W/EbdpcG93enL/jYJt0H5Gj5eO3GPD+zWt9eusHPiPMeF9WX1Y4/nXg6n2GzHFw7ZvfR+qkbZyzLV1nsktTmV2eEOJ2YWYjCCCAAAKRCqQZ4nqDivYIljuQ8w7atDN0kGINageX1/Xkp72uPp8a4Nz1feXOaKO9evlc6+Mro154cjt7hVtHHC0332KmE+QkMFen+VknZnpXa1/UAXp/MNwuI10x5ZYH9Rpq06v7yCDY3qD9PFievZA8X7l83a63j3Vbzpckuo7T9sF9IbCO2zrv76F19XVf3QPvaR17RxdL2vqoq688p2Jajk3ge61ZTetjrzDSl4PlNQVbnyG+eut2fe/ZZTTPtc8DX0IMlRd4b7Aduk7HpanMLk8IcbswsxEEEEAAgUgF0gxx3oFDPeDvDHp0YGOfIlefWlffI6p7ep8uHxgI2Z2og5jm9KTp17CUxej6bltCr5cr+dpoV6p+rmUMTOXfHaDJffpsl+r5PTThjB4VcetuVaUJVnKt4qPoXm+VDYeytpgVQpxcq1WfSleeqha8x93Evp9cXtuK6tnK5WsfB/pA+7cTerzraL2m/o247bJ+n2rjrYeW49vHtY6Bv0str/O3r+V1f6pLy6Zlz2m/ruOrz9B73bp0vghy3mqu9ZzQpmrVke2qUdtwa4tD5nNcrCJ3eEqI2wGZTSCAAAIIRCtwUIiTy8eqUxk7g8wxpicGInqdkPdnM1CaFhrKajZ1uTf3RFulLU25vgTlG2z50Mba4Qz4dJtyqpX1X7A9IyGuCXDOKa9yNEr73T1i6mtFM5AdCKOynpbZra8zUYTVrrKNvcGsY9Kr0Nzy3AJWLl/7rNeOarvaBx0T7zpar27f2/tB+bz5G3HbJb/PtPHWQ8v17eNaR19oGjmipcXWP3Vfadm07Dnt13V89Rn727MqNNvBWrf3dKhOllHbcKuEIfM5LlaROzwlxO2AzCYQQAABBKIVOCzE6SBz2mC+9ps96BkZ2PS6ZcbynbrowM05fa1XvvVCZ/0Jr5eL+AZb1rrNU62Pb5ApC+n7U4+INQVXTwZDnJY9tu3Q+/a2tKyheuoy3fJ0sC77V3MNkhQdcp94itz08ux2lBuuw363nrrU7PoG21GVqOVND3H+emn9hn7qtibbDNa97s9OaBz5u9TyOuv4a6x1bbPMSNneYobWGXrPKUzr3VbGWsDnYL3dezqy3dnbGimvt/39XyDE7W/OFhFAAAEE4hE4LMQ1g+nyRt8TQWYPRNqjNN5xkmez/UGeZyF5ya2LBpup18W56+tmQq+X708f2A22Q+s6YdCr1er81PW9qBqqQsFrzuBwrCzrerhOWwa2EfQdWGco4AXL64jJDjMQ4gbeC5Ufer3crJbnfKkQWGdwX3Gb0ftdt+UJgYHt9f52OmX69/HBOup2OvtAp9DmF185vteaFbxPBtpsHRn2/nnY5Wm9vQv6HezVu8+H67S6eXfjh/xGiDuEnY0igAACCEQicFyIswY7OuFFz6ScGCNvj6QsGfRo4AgM8DozTpbZrJ4kw7N88XgM1mXW0cVQW0KvlzgzBnba7t6piDrYcwb4PfyBF7Rs7+CzLb9zFEiL03V79dIF7J8DIa6+L1l12p8bILQO/dd1wN6bFdTaH/vNWlae3RJ5rttepXzdT3yzDaqxuw/rOm4FQsvXDXD/RrrtWmATqkdZcGAfD9VRyxIHt73dilalD85I65/d0tf+cF+GvlioKjP2GdJWOeDQLtB7NlSnJSGumeU04Opz6VVqwxcIcRviUjQCCCCAQPQCh4a46hqpOjTV1yxlMlFIcz8vuR7DGojrgM0dhJbM4UGPDm5kwN/eH6rdbrc4HZRW2551nzhroO4LCZ29IdSW0OsjbeyUXf/StlvvVaX316umpfetE3rtcbcmPtH+kZsX64Qo9iwoOuAu+7RdRu/RVYX20Jbs1zXEVTdb132jucdfXf7dM91lE6ibe/1ZbZf1up1ebtReR+/XpYvZ7+n92Dr10AXt6jvP7TKeLr/eT0oT21n7xneEe2DfaveVKX8j3YbZ7ZpkM1CP5lTfXnDo/l2qX3W9ntwD8IkQZ//dTvqMsIKazLgqfwPyt9Bcxtqt69zPkEo3/HnW1W9/s/uhV6dF5u0XD9M+O9u67PGMELeHMttAAAEEEIhV4OAQV7HIN7rtjZjrC+klzLn3+Vo4EJGtyI2m2xBRBzSZJbHwJACZgOOuN9tu65NbN64Of7P9qAaU5SDaV3a9K4TaEnq9XG3uwC7Qjs5FYnV9Bn/Yg9LaowwO1nN30F3IjJdOcCoDlXON2uB2rRDnbE/CeDnr5cD6hdOHss5Dju4GQpwU9dDZK8vtdWccXVKeW73Vyq/3k/Jop3srB7Hx7XqD+9bcv5Fuy2bZDNZjaB+XiXHaL1/KLwPKhtb7p7sPdqtY/qZhtQ1c7ULzPiOG95XyCypn/7tJ0Jv0GSJ1GnJo6+w+6/pY+8Fi8+f2C7d+a/5OiFtTk7IQQAABBFITiCLEpYZGfRFAAAEEjhUgxB3rz9YRQAABBI4VIMQd68/WEUAAAQQWCBDiFqCxCgIIIIDAaQQIcafpShqCAAIIXEeAEHedvqalCCCAAAJ9AUJc34RXEEAAAQQiFyDERd5BVA8BBBBAYFMBQtymvBSOAAIIILCFACFuC1XKRAABBBBIRYAQl0pPUU8EEEAAgUaAENdQ8AQBBBBA4IIChLgLdjpNRgABBFIXIMSl3oPUHwEEEEDgGQFC3DN6rIsAAgggcIgAIe4QdjaKAAIIIBCJACEuko6gGggggAAC0wUIcdOtWBIBBBBA4HwChLjz9SktQgABBE4vQIg7fRfTQAQQQACBAQFC3AAObyGAAAIIxClAiIuzX6gVAggggMA+AoS4fZzZCgIIIIDAigKEuBUxKQoBBBBAIDkBQlxyXUaFEUAAAQQIcewDCCCAAAJXFiDEXbn3aft5BIq7yW43c8vupjhPq2gJAkEBQlyQhjcQQAABBC4gQIi7QCfTxAsIEOIu0Mk00RYgxNkaPEcAAQQQuJoAIe5qPU57zylAiDtnv9KqoAAhLkjDGwgggAACFxAgxF2gk2niBQQIcRfoZJpoCxDibA2eI4AAAghcTYAQd7Uep73nFCDEnbNfaVVQgBAXpOENBBBAAIELCBDiLtDJl25iHW6ye2FMcTd5djO3egKQhwVTPKz35P1bZvL7IzhJSPHITaZlleX5l6/KzaptluXeTJbl5uGbfWRSXQvzuOfVJCZ1PTOpJyHO6k2eXkGAEHeFXqaNCCCAAAIhAUJcSIbXzyGgwShvg08VvnKjIa64a8jKTJbnJreW9c32+MjrIHjrL59roUYyo5Z7a8ptQuTtZuxlS+wJdbW3LfXMs3YbGk59+fAcnUkrEGgFCHGtBc8QQAABBK4nQIi7Xp9fq8V6hKo8WuaZfl/f703NXxgNTJ2w9cjrI3ltCFRQOerWHGHT5W79o25yFK8MXPKeriw/tS6hugbXe5i8PsrnC532JniOwFkECHFn6UnagQACCCCwRIAQt0SNddIRaIKRE5jqFniDmrZO17VS3ODyup4x/gA49r5uzw13Tl3LU0Otssqnum4vjLoL8jsC5xAgxJ2jH2kFAggggMAyAULcMjfWSkVAw40VxNqqF+ZeX9emp1GWpyjWp1TmeX2qYhOMdPnMyCV24cf4cnqqZSeQTaprYNu6blPXcO14B4EzCBDiztCLtAEBBBBAYKkAIW6pHOulIaDhZiTEVac36rVuzs8mGOlpi/6jei3I+HIa4m52vSbVlRDXOvPsygKEuCv3Pm1HAAEEECDEsQ+cW+CZYNSTGT/CVq0yvpyGOI7E9ZB5AYFJAoS4SUwshAACCCBwUgFC3Ek7lmbVAoMhbvzaNddxnWviNOQ5M1Q+U1ddtzlq6Nac3xE4lwAh7lz9SWsQQAABBOYJEOLmebF0agIabuzTFu026IyPgfDTmXHSvm2AZ/ni8Zg3O6VbxtK66nqhWS3t9vIcgZMIEOJO0pE0AwEEEEBgkQAhbhEbKyUjoAEnFOKsmSTluji5EXc1uUl7/7Xuqu1RNLkhuE6IktVT/NvL6lG7slydLKW5Qbjn2rbRuna33blPnNRbynaDYTIdRUURmCdAiJvnxdIIIIAAAucSIMSdqz9pjSswGoyqFeTebdVNwHVSk6wMdI/CNw1lYR739ubh5aQoWWby+8O4S3vLza37ydn1nVRXuX9dGzAlSOblVJl1wCPE2aI8P7EAIe7EnUvTEEAAAQRGBQhxo0QsgAACCCAQmwAhLrYeoT4IIIAAAnsKEOL21GZbCCCAAAKrCBDiVmGkEAQQQACBRAUIcYl2HNVGAAEErixAiLty79N2BBBAAAFCHPsAAggggEByAoS45LqMCiOAAAIIrChAiFsRk6IQQAABBPYRIMTt48xWEEAAAQTiFCDExdkv1AoBBBBAYECAEDeAw1sIIIAAAqcXIMSdvotpIAIIIHA+AULc+fqUFiGAAAIITBcgxE23YkkEEEAAgUgECHGRdATVQAABBBA4RIAQdwg7G0UAAQQQeEaAEPeMHusigAACCKQuQIhLvQepPwIIIHBBAULcBTudJiOAAAIINAKEuIaCJwgggAACqQgQ4lLpKeqJAAIIILCFACFuC1XKRAABBBDYVIAQtykvhSOAAAIIRC5AiIu8g6geAggggEBfgBDXN+EVBBBAAIHrCBDirtPXtBQBBBA4jQAh7jRdSUMQQAABBBYIEOIWoLEKAggggMCxAoS4Y/3ZOgIIIIDAsQKEuGP92ToCCCCAwAIBQtwCNFZBAAEEEDiNACHuNF1JQxBAAIHrCBDirtPXtBQBBBBAoC9AiOub8AoCCCCAQOQChLjIO4jqIYAAAghsKkCI25SXwhFAAAEEthAgxG2hSpkIIIAAAqkIEOJS6SnqiQACCCDQCBDiGgqeIIAAAghcUIAQd8FOp8kIIIBA6gKEuNR7kPojgAACCDwjQIh7Ro91EUAAAQQOESDEHcLORhFAAAEEIhEgxEXSEVQDAQQQQGC6ACFuuhVLIoAAAgicT4AQd74+pUUIIIDA6QUIcafvYhqIAAIIIDAgQIgbwOEtBBBAAIE4BQhxcfYLtUIAAQQQ2EeAELePM1tBAAEEEFhRgBC3IiZFIYAAAggkJ0CIS67LqDACCCCAACGOfQABBBBA4MoChLgr9z5tRwABBBIVIMQl2nFUGwEEEEBgFYHb3/7jXxv5x5D/MGAfYB9gH2AfSGUfkH+7eCCAAAIIIHBVgdtVG067EUAAAQQQQAABBBBAAIEUBQhxKfYadUYAAQQQQAABBBBAAIHLChDiLtv1NBwBBBBAAAEEEEAAAQRSFCDEpdhr1BkBBBBAAAEEEEAAAQQuK0CIu2zX03AEEEAAAQQQQAABBBBIUYAQl2KvUWcEEEAAAQQQQAABBBC4rAAh7rJdT8MRQAABBBBAAAEEEEAgRQFCXIq9Rp0RQAABBBBAAAEEEEDgsgKEuMt2PQ1HAAEEEEAAAQQQQACBFAUIcSn2GnVGAAEEEEAAAQQQQACBywoQ4i7b9TQcAQQQQAABBBBAAAEEUhQgxKXYa9QZAQQQQAABBBBAAAEELitAiLts19NwBBBAAAEEEEAAAQQQSFGAEJdir1FnBBBAAAEEEEAAAQQQuKwAIe6yXU/DEUAAAQQQQAABBBBAIEUBQlyKvUadEUAAAQQQQAABBBBA4LIChLjLdj0NRwABBBBAAAEEEEAAgRQFCHEp9hp1RgABBBBAAAEEEEAAgcsKEOIu2/U0HAEEEEAAAQQQQAABBFIUIMSl2GvUGQEEEEAAAQQQQAABBC4rQIi7bNfTcAQQQAABBBBAAAEEEEhRgBCXYq9RZwQQQAABBBBAAAEEELisACHusl1PwxFAAAEEEEAAAQQQQCBFAUJcir1GnRFAAAEEEEAAAQQQQOCyAoS4y3Y9DUcAAQQQQAABBBBAAIEUBQhxKfYadd5E4N2P3zA/+c33NimbQhFAAAEEEEAAAQQQWEuAELeWJOUkLfD6r14z333/VaM//+X//eek20PlEUAAAQQQQAABBM4rQIg7b9/SsgkCEtYkvNlH4OSI3Ld+/lXzT//Pf5xQAosggAACCCCAAAIIILCvACFuX2+2FpGAhLRvvv0VI6HNfbz47Bfm6z/7svn8//rMfYvfEUAAAQQQQAABBBA4VIAQdyg/Gz9KQMLZ/a0vmeKPHwWr8Ps//7ZcRn7yQAABBBBAAAEEEEAgFgFCXCw9QT12E9Bw9ocvPhnd5hd/+VN5RE6OzPFAAAEEEEAAAQQQQCAGAUJcDL1AHXYT+OWn75RH1yScTX3oaZfv/O71qauwHAIIIIAAAggggAACmwkQ4jajpeDYBCSEyYQlS2ee/P6HXytnr4ytXdQHAQQQQAABBBBA4FoChLhr9fdlW/ujj75hJIQ9+5BZLL/93suLg+Cz22d9BBBAAAEEEEAAAQQIcewDpxaQo25y9O2nxQ9Xa+cHn7xVXifHLQhWI6UgBBBAAAEEEEAAgRkChLgZWCyaloCELLlNgFwHt/bj489flNfWcQuCtWUpDwEEEEAAAQQQQGBMgBA3JsT7SQrIzJOvvPmSkbC11WOPbWxVd8pFAAEEEEAAAQQQSFeAEJdu31HzgMCeR8m2PNoXaB4vI4AAAggggAACCFxcgBB38R3gbM0/4nq1La67O1u/0B4EEEAAAQQQQACB9QQIcetZUtLBAjJ5yZEzR8oMmPIfDwQQQAABBBBAAAEEthQgxG2pS9m7CcjtA2IIUBIkn7kX3W5gbAgBBBBAAAEEEEAgWQFCXLJdR8VFQE5l/ObbXzFyI+9YHjIb5v2tLxluQRBLj1APBBBAAAEEEEDgXAKEuHP156Va88Vf/lSGpRef/SK6dv/+z78tZ8eUGSx5IIAAAggggAACCCCwpgAhbk1NytpNQEKSHO2Sn7E+5B5yUsfijx/FWkXqhQACCCCAAAIIIJCgACEuwU67epUlFMlNvFO40bacUimne8qsmTwQQAABBBBAAAEEEFhDgBC3hiJl7Cbw7sdvlKEopevN5Lo9mTXzJ7/53m5ObAgBBBBAAAEEEEDgvAKEuPP27ela9uNff8d89/1Xy8lMUmzc6796rax/inWnzggggAACCCCAAALxCBDi4ukLahIQkCNZEt4kxKX+SPFIYurm1B8BBBBAAAEEEDibACHubD16svboNWUSfs7ykNk0U7mm7yzmtAMBBBBAAAEEEDiTACHuTL15srbIxCUSds44u6PMqilti3l2zZPtTjQHAQQQQAABBBA4jQAh7jRdea6GpHALgWfFNaTGeJ+7Z9vG+ggggAACCCCAAALbCRDitrOl5IUCEmrk/mpyM++zP+R00W/9/KvmTKeLnr3PaB8CCCCAAAIIIHC0ACHu6B5g+x2Bd373enkLAZnM5CoPnbhFZq/kgQACCCCAAAIIIIDAmAAhbkyI93cTkBDz/Q+/ttv2YtuQ3Ecu5VsoxOZJfRBAAAEEEEAAgbMKEOLO2rMJtYubYbedxS0IWgueIYAAAggggAACCPgFCHF+F17dSUCuCZNZGj/45K2dthj/ZmQ2TrkmUCY+4YEAAggggAACCCCAgCtAiHNF+H03AQkpElY+/vzFbttMZUN/+OKT0oZbEKTSY9QTAQQQQAABBBDYT4AQt581W7IEJLi98uZLRsIKD7+AzM4pIfeXn77jX4BXEUAAAQQQQAABBC4pQIi7ZLcf22gJJXIKpZxKyWNYQK4XlFsQyKydPBBAAAEEEEAAAQQQEAFCHPvBrgI/LX5YhpIr3UJgDWCZtfNHH31jjaIoAwEEEEAAAQQQQCBxAUJc4h2YUvUJIs/1FgH4OT/WRgABBBBAAAEEziJAiDtLT0bcDk4JXK9zOBV1PUtKQgABBBBAAAEEUhUgxKXac4nUm8k51u8oJoVZ35QSEUAAAQQQQACBlAQIcSn1VmJ1ZZr87TqM2zNsZ0vJCCCAAAIIIIBA7AKEuNh7KNH6ccPq7TuOG6Vvb8wWEEAAAQQQQACBGAUIcTH2SuJ1+uCTt8w33/4KtxDYoR/lesNvv/eykUlPeCCAAAIIIIAAAghcQ4AQd41+3q2VP/nN98pQwS0EdiMvNyS3H5DZP3kggAACCCCAAAIInF+AEHf+Pt6thd99/1Xz+q9e2217bKgrIDcElyOgBOiuC78hgAACCCCAAAJnEyDEna1HD2iPXJsl4eHdj984YOts0hZ48dkvzP2tLxmZFZQHAggggAACCCCAwDkFCHHn7NfdWiWzJH79Z182Eh54xCHw+z//tgxy8pMHAggggAACCCCAwPkECHHn69PdWiQhQQIcYWE38skb0nAts4TyQAABBBBAAAEEEDiXACHuXP25W2vkyJsEOAkLPOIU4DTXOPuFWiGAAAIIIIAAAs8KEOKeFbzg+nLtG7cQSKPjZZITmXDmx7/+ThoVppYIIIDAhQReefMl8zc/+Cv+w4B9gH1g1j4gnx2EuAv9Y7FGU2X2SQkFPNISkBAn/cbMlWn1G7VFAIFzC0iA44EAAgjMFZDPDkLcXLWLLi+Df7mptNwHjkeaAhxBTbPfqDUCCJxXgBB33r6lZQhsKUCI21L3RGXrtVUffPLWiVp1zabIRCdcy3jNvqfVCCAQnwAhLr4+oUYIpCBAiEuhlw6uo0xcIvcdY5bDgztixc1zC4IVMSkKAQQQeEKAEPcEHqsicGEBQtyFO39K02WwLxdO/uGLT6YszjIJCcjNwLm/X0IdRlURQOCUAoS4U3YrjUJgcwFC3ObE6W7gl5++Ux6Bk1MpeZxTQE+Tfed3r5+zgbQKAQQQiFyAEBd5B1E9BCIVIMRF2jFHV0sG9d/6+VeZyfDojthp+9//8GtGZh3lgQACCCCwrwAhbl9vtobAWQQIcWfpyRXb8aOPvmFkUM/jWgIy66jMPsotCK7V77QWAQSOFSDEHevP1hFIVYAQl2rPbVBvGbzL0befFj/coHSKTEFAZh+V6+Q4hTaF3qKOCCBwBgFC3Bl6kTYgsL8AIW5/8yi3KIN2GbzLdXA8ri3w8ecvymshZVZSHggggAAC2woQ4rb1pXQEzipAiDtrz85ol8w8KTNQyuCdBwIiwD7BfoAAAgjsI0CI28eZrSBwNgFC3Nl6dGZ7OOoyE+xCi3N09kKdTVMRQOAwAULcYfRsGIGkBQhxSXffc5Xn+qfn/K6wNtdJXqGXaSMCCBwpcMoQVxSmOBJ17W0Xd5PdbuaW3fvtOl1bT9Z3S/eFoT5fWubK6xHiVgZNpThmIkylp+KoJzOWxtEP1AIBBM4nEH+IK0zxuJs8y8xNgoz+l2Umy+/mUThx7ZHXy+TmcWh3PUyudQ38zKdWMDSgj6atK0GfrT3PsIT6/JkyV16XELcyaArFcU+wFHopvjpy78D4+oQaIYBA+gJRhzgdyDYhKDOZhLfMCnO3m+mEIQ0CvqNWu3aXhjgJm7nJPf89nPwZrJ46uG0KtrUw99IoM/ep2whufM03RuoVbM+adUikrFCfR1R9QlxEnbF1VeQap2++/RUjg3EeCCwRkNlL7299yXzxlz8tWZ11EEAAAQQcgWhDnA5ib7f6iJtTcfm1eJh7npn71CNaniK2e0lD3ApHBNXCDXHByo+EpeB6W78Ra722bveC8mf3+YJtPLkKIe5JwFRWl0G33ELgxWe/SKXK1DNSgd//+bdlkJMZLHkggAACCDwnEGeI0wB0M1lch5JmYGsbCHEtGiGutRh5RogbAeLtXQR00C0/eSCwhoDcQ06OSIA9ywAAIABJREFUyBV//GiN4igDAQQQuKxAlCHumdPqdPBrnWNZ3Kvr6UKBMPR+dS2efepmZvL7oz+5iHfvWRLiCvO459UkJuUppJnJZHvaJvdInL5utfWR2/XtPrcW89bYd+1hluXGe9pnve3KtCiPiDbXK94ykzsrTaqXpz12RRfXrz5i29Qvy6edZloU5pFnVn/cjHh4v1ewPWZtb2af2yAHP+dI3MEdsPXmZZAtR+C4cfPW0tcrX0/PlVlOeSCAAAIILBOIMcTpgD8UugZb6gsC+pobgsqCNGx1rx/TYHe7tde0lTNESrjyluPWSsudfiRO2y3bLK+h603m4sxOqe2y0lkZdPI2CLbX48kkMG4d29/b9srpq/U1fNa1h9YmqpU0tDTbUqd2Ahq7/ybVy9MereEa9euadvtbt9P8fNQzgsrpvJl6aNs863o8pmxvdp83FTz+CSHu+D7YrAbvfvxGeQ2cDLZ5ILCFgNyC4NvvvWxktlMeCCCAAALzBeILcXrKnTNhydSmeYOAlukZfOtRPzulaBm9sCZHZqqjW/bi/qppiNNw053cpHcdn9bj5oS+QsvxhEetZ68yA+31VdbethP0Cvs9e13dtoTa3Dk6GVrHjNRLy3TbY5e3Qv2aQOhux27fI/deixlcV+vu8QiuY7fL3vZQn9vLHfycEHdwB2y1+R//+jvmu++/amSQzQOBrQVe/9Vr5f629XYoHwEEEDibQHwhTkNLP3A1g+HyVMP2VMHOWFwH050XjdF17aND0pe+UOZ7ren3QPnN+80TbUdbz+Z0Pjm645yTp9t0Xy+L0226oVJfd9pqxsJSU8fqiW67V0y9nPd93bZbp6rC9eyYbhBfFuK827fa4H1/qH5D71nlep/qui6Wvu7zCLyn9Z7V595KHfMiIe4Y9822KqFNwpuEOB4I7CnAkd89tdkWAgicRSC+EDcw0Jf7xempfnIaX326X2c8rQPmzosyk6WeHmcf6dKgZb+m27dOK7S2mef1KXW+wXpnp/CV3VnA+kW32Q+u5UJad3eb+rrb1lkhbmTbJZ3nmsLgtqtm+QPKyLa8ZY6ss6h+dd+4nlaPNE/lurjOflf3v2vurbuW4tveSLu0vCl11M3s/JMQtzP4lpvTa5RkMM0DgSMEZPZTrsE8Qp5tIoBAqgLxhrj+0SrXWINCZzytg9/Oi7KmDpqto0N6Oltn2XY5+8hZ7/no4DqVEDdeTz2KKadNNo+gc7WErtM9yqS2I2HV3o7Zon6+UNW0rH7iTtbiHFHt1NH6ksB9vSzNt72JFqP7mVvv/X4nxO1nvemWZOISGTwzW+CmzBQ+QUBmQZV9kdlQJ2CxCAIIXF4gvhDXnvo4NoHIvBBXnjtpyjBWD7S96zdhLxA0Ju8x4+GjLWrhgD4YpEbKazdshdtwe72BLLjtqnC1fT7Ejbdlfv18oaqD0pxmK/tgZ0KYULtDr5fF+rY30i4tjxDX7Rh+W1eAWwis60lpzwvolwrcl/B5S0pAAIFzC8QY4kxz9GX4aJwGhc7BDx38dl7UPrSDlW9gXS3nLVeLmPzT3tb4SoPb1Da5A3p9vdfWkYDgVGdw202otY5gyvrBbZdv7nhNnLZ1Tv3CfV/RaJmeYBtqd+j1skD/9gbdtTy3z6sKRvF/jsRF0Q3LKyGDZLlfl9zMmwcCMQlwem9MvUFdEEAgVoE4Q5x11EwmAZHZD51ZCcvTI30zRergtxdsqh5oBs55Xh6V6x4pqntJT7MMDKBluvzO0Rlv584LcSa0TW2P79YG+p6nrU07rTMgvdWUF3XbMjOm49zMTula6LZ9szFqee46gYlkmnppmW57tLwl9XPLKjfmD1VNPZrg6oa4dnbSzqmlsmKo7kPb03a5TlqWr8/bSh7+jBB3eBcsr8A7v3u9vIUAM1AuN2TN7QVkoh2ZvZIHAggggEBfINoQJ+Nimea9MxNlZrKse/NlOT2yM07XAXDnRavdOnAuy3UH6e1yGoKk/OY+YTqpibvNdjXrmYY4/y0GZIKW7gSVevRHrr1y7hMn9ymTSVxCg31PW/UUQ7ssz2JNfTvt1YlcmvvEeZzUuekPp84Bo8F6aZmeii6un6es5kiv69loWKf0NvcJdPY7t9yBuoe3t6DPrToe/ZQQd3QPLNz+jz76hvn+h19buDarIbCvgNxHTu4nxxcO+7qzNQQQiF8g5hBX6RXmcW9nomwmGMkyk989R8QGB9NS4qM51a8XipzuKkNkE2SqcCWB7tE/LOisWW0n7wRQZ2IMz20G5OjiwwqKZQArk1492HdDx0hbu2W5obFfZW97c4+xrGpvW+5rZt+YvDTql6+vBOtll6kLWz8X188qo3o6diSuWqqQ/c7qw6rv63VXCXGynZl93mvLcS8Q4o6zX7RlGQTLYPinxQ8Xrc9KCBwl8MEnb3Hz+aPw2S4CCEQrEH+Ii5bu2hUbCVzXxrlG6wlxCfWzXGMks/7JYJgHAikKyOypcg2nTHzCAwEEEEDAGEIce8EiAULcIrYzrUSIS6Q3ZdD7ypsvmY8/f5FIjakmAn6BP3zxSRnkuAWB34dXpwk013W4p9Q0q+u1Dva1JHqNTP+0Kj1FrF9cdaqNe0rP3Z19oNkuTxCYJ0CIm+fF0rUAIe7yuwIhLoFdQIKbBDiOXiTQWVRxkoDMpipH5H756TuTlmchBPoCGsjskGYtpZMndK5hadfJdOIA52c3m+nyMqFBPWmAdb1MP/BZ2+cpAhMFCHEToVisK0CI63pc8DdCXOSdLoNcOYVSTqXkgcCZBOT6zm/9/KtGZlnlgcASgfDROD0K58ya19z7KjdTZv0Oll/IxAxZd0a+JQ1gHQQMp1OyEyCAwDIBQtwyt13WkslLZJB7xhn9utMWy2DIuTHKLsJsJAYBmWVVZlvlgcB8AT1S5hyN06NwvUNluvyUEBcKgvNryRoIDAlwJG5Ih/cQQCAkQIgLyRz8evoD24HBkp4CYN/7o3uzFkdfy3KvY5F7vwSm3nVK4Ne4Bc78hUXc8unXrn+0TMOXE+zKpupnyZQQJ/ffrT5zvDcjTp+OFkQiQIiLpCOoBgKJCRDiIuuw85xiFh4s6aCr9yV5sC+0rO4NOzPr3jHTywpuJIE3hganCVR/pIqcOjwCxNsBgfbzofwuKHgUTlbXZaeFOKNlyY1/OVsg4M/LzwoQ4p4VZH0ErilAiIuo38812UN4sKTfbk8PXuGyNBDebhMHZRH19/yqnDvEiYdO4iMzWPJAYKqAfg5kd72JsO8onJSmnyXdL4TyenKTu+dCue5Ncaswx8nfU3uG5aYIEOKmKLEMAgi4AoQ4V+Sg38837boOlvrhas0QZ4wGG3cCg4M6ctPNaltDA9RNN75b4TILq8xcye00diM/wYb086Y+5Tr4DZGz3K17inbotMnicTe5deT/xpG5E+wz8TSBEBdPX1ATBFISIMRF0FvnvAGyDpbaEKffluv9mNqf7TL+7uiX1S6nwcYKcfU1d+WArLAGX9m9MyOdd2B2fxjft+y+ZbO8v6xvudxXZqeOD3O3pi2/ZblxLxHU4NuatYPP4Hi1RUruGTe2T67LDq9w+/ky9CXH0GfJeBOK4tEJc6HQN14SSyDQChDiWgueIYDAdAFC3HSrTZZ89+M3zDff/soJbyHgGSzJt9l5bvRatizLy99zTxjqYnvKahbQ96yBmwYk2Vb9TXu1zTYs2gM+vV+ULnvr3FdKzsDKTRWerFOwssy4y80qs1fH+h5UUm5ZZ6s9xpgyHNrtae5tdd6JXeT60G+/97L5yW++1/Q2TxAICtR/U+7fZXd5/bxoPwu670/7rf1bf66caVtjqbMLEOLO3sO0D4FtBAhx27hOKlUGp999/9VT3kKgvfakP8jRo0rTjyCFB17NYMoOXjqYkzBkv669ou/33iua2ejauumRvm6o0qKan7PKlFR2bwLmzQmxTZvaStSbmViXplLnePL6r14zMlsrDwQGBfRvqvd3ba8V/iyxlxp/ruWMfC6MF8QSCBhCHDsBAggsESDELVF7ch05wiDhTQan533oIGfNEGcdCbOOSsn1KZ3TD3UwF5jsZDBE6rpNgJoWnOaVaYU434BT69B7b1pdzrhPyQ3Bz3nE+oy9dVCbgn83dn3Cn0v2UuPPtRzns2d8RZZAoCdAiOuR8MIeApM+M/eoCNtYKkCIWyq3cD251kdu4C2nUZ77oYOcNUNcex1Yecphlpmh683kCFf/oUHoZvQ0Sp2ZrvpZn85oB6jO6ZQPU/QumltQpn54eutY29l1KBui27nmwPHFZ78wX//Zl43M4soDgZ6A/k31/m7sJcOfS/ZS5XMpT65P7d1aoD1i7z3S3yuIFxAYFiDEDfvw7kYCkz4zN9o2xa4iQIhbhXFaITLrngxCZTB6/kd4sDR41MoLEy7Lu7h+MHkDkgYhJxA6s9S5g7PehCVZbtqx3YIyB+tIiPP2qzHm93/+bTlzpfzkgUBHQP+mJoW47lF9+4uc5qi+lqefDVlmsuaaVfn8uOaXKR1zfllFgBC3CiOFzBXQz7jBz0wtVMc5fO6pSAw/CXE79YIMOiXAXWfwGQ5ecYS4hR9EhXwL704+suDDTT88vUGTEDf0Z6lfhsisrjwQaAT0b2pwQKKfS+EvcTozThbVzLHNpEf1pEO+mWmbevAEgZkChLiZYCy+jsCkz0zd1IJxjq7Kz80ECHGb0bYF62lgMvi8zkMHS2ueTtkvy+upH0zegCSTTVYDuMDb3iLdF3XyES1jdpmDdSTEud7u73Jaslwjd/7Tkt2W8zsCCJxNgBB3th5NpD06Dhn84kvbQohTiZh+EuI27o3z3kJgDC7eENfcMiDwwSWnTranSsp9oexTJ6t290KbXjc3qUxrYhNNgR3OUIhbJ4B2NpXwLzpB0I9//Z2EW0HVEUDg6gKEuBX3gDqYVEfUi+49WG+Zydt/3NuN2uuM3ltWz8SpvgyW62Z9RWrhxaO9rdLQtfy9Szakrr57zNYFz1u+MI97e8slORU8k7Inhjgd71S3P+qexeAOYap6zTNSK37OFyDEzTebvIbMPimzUF7zEXGIK2/91n4Qtferaz942g8mbcetnOSgvHYmq9d1Apv9QTdc5vIQp0cA5UO4qov8o3TNPUxbLSHuvLfq0FbyEwEEzipAiFuxZzWQNTNY6/Wv7b/vnVOmZdO9deTfe/l3vj37p/2315oUTccCt5v33+F2TKB1aIOU/e92W3Z/Off6/Kq62pZpy9v10HFDJ5A5Yxm3N8pg1nha7c/tL7yFUetlLTNi5G6L3+cJEOLmeU1ampsUC5OGn/ZDUPH0A8X+ENP3/D/DZXmX12+XRjbQ+4ZMvp0qv1Vzpp+sr4tpP/Tkg/NhnKXKqkwvs75PnLeOdXsDH6ztNXnVPzLNRAxejGu8eN0j3tfoX1qJwJkFCHEr9q7++y/Xr7r/TusZM1Y4K7dsr+P7d9dez/mHX/7Nr8YGzlhHX5cxhdM8CUXN0Tvddm+77Sy4nWHC3OW1Hr0267gqcD9dp87GjJxOaW9nqlFvG7wwV4AQN1dsZHm9VueDT94aWZK3EUBgTQGZ6EQmD7rWtadrClIWAggcIUCIW1E9GHJkGxpEnCNnuo4bdOpqjX3x7Hvf95qvlYPLab2sFLd0+d7Rx5Kj/jK5FyB9NVU7/6Rwg/Wyzn6ymuLbCK/NFCDEzQQbWlwGj/e3vmSYNW9IifcQ2E6AWxBsZ0vJCCCwjQAhbkVXT/CxS9ew0Qk1g+sMhxcpW08jbMscX6eqky5nnX6Y59WlEuXP+vTEJmQtXd4fvPQ0Ut8pm7ZZt66+srRevvfqtetTLVuj/hZ4Zb4AIW6+mXcNGTy+8uZL5g9ffOJ9nxcRQGAfAbkZuHyZco37Me5jylYQQGA7AULciraDgcwXuNpr4uT0y/5DTzvsnxapy2qIa9cfX6daV8NPe41+e9mG9ZonxHmXa+5pea8v99DyA+FKrZrytUW+n0Nljbe3b+TbBq/NFSDEzRXzLP/LT98pB41yKiUPBBA4XkCuS5VbELzzu9ePrww1QAABBAYECHEDOHPf0mDiDWTtDM+dI0KD6wyFl6pyGlDaMsfXqdc093Lij0DI6rV9arm64sjy2u6nQ9zIdrxHK7WO/HxGgBD3jJ4x5qfFD823fv5VI4NGHgggEJfA9z/8mvnRR9+Iq1LUBgEEohP453/5/w6rEyFuRXoNJt4Qp2EjcE2cd502+Pnf9pepp23612nbO3U5XWPV5dXq6RC3zEjbxM/lAoS45Xbl4JAB4hOArIrADgLyRcu333uZL1p2sGYTCKQq8G9/+x/Mf/HffGje/nf/5+5NIMStSK7BxDM7ZTOTpBtadJ1Q4poy86JTph6d811vVjwe7eyUWrazvop0ZrKUF9daXtssToFtax3052CA1HrJ5DCh2Sknbke3x89xAULcuFFvCTnqJkffZHDIAwEE4heQ2WJl5kpOeY6/r6ghAkcISIj7V//67fK/vcMcIW7FHtdwkmUmK68Ra++pqteR9bKartN7o62XBhgpI9PJR5p7oPlOh2yP0JU3167XqerUPRLYKTvTiU3ae6651Zq3fLcenfvEybakDRPDVRNMA/ep7dRrklHry7NlAoS4BW4yGORamwVwrILAgQIy0cm/+R/+W/Nf/t2/m/3fK39fmP/+f/zfT/vfey/+ZGQQe8b/fv3xFwfudWw6FQE7xO0d5ghxK+4ldiArHibP2jB0K+8D69mWvY7nbX3Jex9Y54bXumz1szCPe3uD7zJEZpnJ7/37zHrL9t23tt7AvOXlnnOWg4Sw8gazdcCbGOJk091ycuPep9Zbr0Gjrhi/zRMgxM3zKpeWGShlJsqPP3+xYG1WQQCBvQX0b1Zmkd3z8ckf/umUwUjD3t//5P84bbD9u3/497PD/pIvCJ5d57/+zv+2qA/ki4lnt73H+tIPe3yBIh4a3tyfcmROvujY6kGIW1F2YiBbcYsUhcBhAoS4hfRyWpYckZOZKXkggEC8AvJli9xygJuAx9tH1AyBtQV++/v/NOsLlB/8T596Q9x//pX/pQyR//Gf/mXtKjblEeIaiuefEOKeN6SEZAQIcU90FdfGPYHHqgjsIMC1cDsgswkETiDgnk65R3hTNkKcSqzwkxC3AiJFpCJAiFuhp2SGSpnKnAcCCMQj8JPffI9ZKePpDmqCQNQCGuL2DG8KQohTiRV+EuJWQKSIVAQIcSv1lEx0wv3iVsKkGASeFJAvVV7/1WtPlsLqCCBwFQE5/VKuvdvytMmQJSEuJMPrCCAwJECIG9KZ+Z5cHyfX3nzxl+0ugJ5ZJRZH4FICcq3qN9/+CrPHXqrXaSwCaQsQ4tLuP2qPwFEChLiV5WX2OwlyMhsej7UFHiYv7/uSm8faRZflafk3o/eT0Z9ZYFrgthpD6+bm7t79sl2RZysJyJcnMtmQ3EqABwIIIJCKACEulZ6ingjEJUCI26A/ZBY8CXLFHz/aoPQrF6lBaesQl7U385QbVtr3mZH7q3gDmdbNXbcNhO4NO6/ck2u3Xb882fsWAmu3g/IQQOB6AoS46/U5LUZgDQFC3BqKnjL0tK53P37D8y4vLRPQoLR1iPOVLzftbG+W2Q9k4brJzS+rm3zeTbGs4aw1ICBH3uQIHLcQGEDiLQQQiFaAEBdt11AxBKIWIMRt2D1yC4Lvvv+qkVnyeKwhEA5Ka5RuzHj5hQa5zA1kQ+sOvbdOza9ainxJIhMKyZcmPBBAAIEUBQhxKfYadUbgeAFC3A59ILPkSZiTUMfjGYFAGKqnFM7uhTHFw9zz9ojZLcuNvDztESi/s7IuczPdo3H6uu8o3tB7ncL5ZYYAf1czsFgUAQSiFSDERds1VAyBqAUIcTt1D0cM1oAOhCENcXlusnLik8zknWvZsolBLlC+U/VHXl3nVobG5r3wus3Ru27qa9bkyTwBjnDP82JpBBCIW4AQF3f/UDsEYhUgxO3YM1y78yx2ICjpzT0lwOWPznVn8wJUoHyn2v4ydV3/xCZZ7p5+6RTKr5MEuNZ0EhMLIYBAQgKEuIQ6i6oiEJEAIW7nzpDZ82QSBmbRWwKvQck5ZVFDXO86NWPM0Hu9KgTKd5YbDnHtbJR6e4LqZ2by6ed1OlvkVxGQiUvkb4dZX9kfEEDgTAKEuB17U8cEc8+MKYrOF8Q71phNIRAUIMQFabZ7Qwej3M9qrnEgZA1+KNfr+AJeb/OB8p3lhkOcEzAlRz70NE/3OjqnYH4NCnALgSANbyCAQOIClwlxE2Zqbv59Hfg3u1lmbhCT/WRwvBDYkbTet/6/74E1Ini5MI88qy8xqS8BkTkCvLdIiqC6VGGRACFuEdvzK3Fa2BLDQMga/FBeP8TNvSaubKn+IzDwD9MSkSusI192yH0X5WbePBBAAIGzCVwmxDUzQIeuUy/MPdOzWcKBSf8NXpLhngpxyfz7rWOlm7ll9RwB1oRvi9zO9kd3kvYQ4g7uSJm1UmbZ4zFFQD+YnA/3XUOc1sH9R0hfd+qmzdI6JvVNnlb+uJ/v/O518823v8LMrsd1AVtGAIGNBa4T4ozRANadGEyB9d/RKsj5w4YuE/i3VosK/dR/i/2Fh9ZK6vXgkUqZvVtC3SOp5lDZAQFC3ADOXm/JfeS+/d7LDFRHwQMf3oMfyvU6k75BC5Rv1av5cOyVN7Ku1pEQZ2kOP/3RR98w3//wa8ML8S4CCCCQuMCVQpzRs1J8SaJ+L8vq2wT5ltF/S3v/Bk/cCXR9X9kTi4h7sfZo5mmbGHcH7Fo7Qtyu3OGNffDJW+URB25aHDYK3ox78EN5pRBXVOeX6yQl/TlKhkKcrFufIsKn6lAHl+/JLQTkS42fFj8cXZYFEEAAgdQFLhXi9N9rzxea1Zekmbk/7tW1XJ6gpl+kukfyisfd5M2pmPLvrUwm1p2tutxPdPvlv8WFc19ZOUrlubFsZx1rb6tfn32P2no8Ud0SqRobZKF72na2YbUxu5vQATUdb7hGVs17T8tr920/OWJn+02sx+R+qGswefnO9p+5H3Cv6Um/QIiLqPtk1j259kcmPuHhEwgEpfqPW24v0H8sCXHVeeTybWD5X3nvuTqE3dzTKHWLWjfnFgPNveukzIWnf+gmLvBTvsSQGSjlSw0eCCCAwBUELhXijB4pcv8t1dfl30l9Hlqm+7oGOwlumdwjtvPvrnN7Hx0vyL/v9X1lq3Xqo3+3m+mFH13HHWNosGi2N+EetRpQZTtZVddcjzz6xhe9bch6Mh4ZGE/o0U4Jsr5Q6vxRaejz+TVNnlCPWf1QzjGj5tP7TfpK+23Z/YCdxif+KyEusg78wxefmFfefIlbEHj7RYOS8+EV+oAty1gY4jrBrfqwlVmdPN/R1TXVumnYs36632h528aL8uWF7Psff/4CDAQQQOAyAtcKcTJBZDV474al+t/QOjUMLmMfodN//+3Xyj2nPQOmCSLyui7vua9sc6qnG5B0nU5Bw2Vp/XtfLsts1fnduNkquLxuW+rba2P4T0Rmpmxvc1SFOe/4RQOf50tmOUrW1HOsHvp+r44j/TB3eU+/Be3CPKd5hxAXYVfK0Qg5IvfLT9+JsHZUCYH1BSS4SYDjKPT6tpSIAAJxC1wtxDVByh7A6/Vweq2ChgI7OGngsF7To0jWS21n+8rQ1+xtN2voEUDndkC6jrsRfd1X1tB7zfasJ7p8aBtusLRWDT31nqrYpLJqrUE/u2CtX6Aeg+Xoulbb5i7v3We0flq+rx90mZP+JMRF2rFyXdC3fv5VrguKtH+o1noCcuqknELJ9aDrmVISAgikI3C5ENfcaqA9q6Ya1NunSerZLe0yesSlzQJt6NLTKMtT7OpTKnM9GmUP7nXA3xbS2VE0XHSOEobWCb1eljhyFpBcFyfX8bl1des1uI1O1YO/FMWjc71g2zb1s90DxQzWQ8u5Naeztu2SU0bro4JNP8xd3jrq6fpMsQ406QwvE+Ii70WZoU/+44HAGQVk8hJmZj1jz9ImBBCYKnC9ENfeaqAak9eD+maQX8lpoOos0zkS1IaB9tRB61IGvSzCLncwjARO9QytE3q9rH4oxDmTqWgd9acbUga3MXUPq5bTENxeT9cPysESB+sxtx/mLk+IC/ULIS4kE9HrMtCVo3JydI4HAmcRkNsH8AXFWXqTdiCAwFKBK4a45vozCS2hgGCfYuldRsPAhCNJ2jnecvTNNly2R6sGAsRgWf4Qp8FUrm/rnNkYKiv0elvlGc80tKnXDL/Beswop6zt3OUH+qAsz289AybZRQlxiXSdXB/HKWeJdBbVHBSQLyPkBt5yI28eCCCAwNUFLhni9JRKCTN1WHMPQjXhTo6kBZbRUNRbN7RTTQojM6+J827cFywGwkuoXqHXQ+0bfN0NcW1o9TbBLmukHnP7Ye7yzb7grajP2q78eZ8T4hLqW538QWaw5IFAigJf/OVP5aQ9Lz77RYrVp84IIIDA6gLXDHFtoKmmzNejQzbvhGV0shP7lEmriM4Mi/K6hhHfLIehsnQdN0CEXi+37wsWbXt0/paqqu0Mjr3ZLAe3YTVUn8rycs+5zmE+edPahmXVnGJpvdYU9Xi0RwvH6hGyqwvr9cPc5Qe377PWVpz7JyEusf6V2ftk5kqmYU+s46iukS8fZN/9/Z9/iwYCCCCAQC1wzRDXXn9WXs/mCRHC04QMCV2BZfSojpTT3HtNJ9O4+Y+qtfeAde/t5ixfVaK6N9nTIc5uj94bTe9XV1/LN2sbnj8hDTt6jV19v9v2mkE3LGuwlO1rnfRebJaFluvWz6rCrH4w7VHAOf3WC7nl9glxVjfwNHYBbogcew9RP1eAG9m7IvyOAAIIVAJXDXH2UbHs/vDvDvbNsbuHrzrLy+mW1RE9ndgkKwPdo3DujlaHkfKaN2fWxpscwXIWLzcSCjBopVBcAAAgAElEQVSh18uVwsGiuLchSQPMQ+pSHx3sNuzuD5CdhZxfioe55044LAOa3Ebd9yjMw6nTzb2/7WBb2zIn90O9yuTlB7cftm5rds5nHIlLtF/luiKZ1e8nv/leoi2g2lcRePfjN8pr4LiFwFV6nHYigMAcgcuGuDlILIsAAj0BQlyPJK0XXv/Va0Zm+eOBQIwC8iXDd99/lZlVY+wc6oQAAlEIEOKi6AYqgUByAoS45LqsX2GZ5U9m++NIR9+GV44RkCPFEt7kSwYeCCCAAAJhAUJc2IZ3EEAgLECIC9sk9Y7M9ie3IJDZ/3ggcKSAfJkg9zWU0yh5IIAAAggMCxDihn14FwEE/AKEOL9Lkq/KrH/M/pdk152m0jJ7qnyZwC0ETtOlNAQBBDYWIMRtDEzxCJxUgBB3so5lEH2yDk2oOXyJkFBnUVUEEIhGgBAXTVdQEQSSEiDEJdVd0yrL6WzTnFhqPQFO513PkpIQQOBaAoS4a/U3rUVgLQFC3FqSkZXDxBKRdciJq8PEOifuXJqGAAKbCxDiNidmAwicUoAQd8pubRvFFO+tBc/WF+AWF+ubUiICCFxLgBB3rf6mtQisJUCIW0sy4nK42XLEnZNo1bjZfKIdR7URQCA6AUJcdF1ChRBIQoAQl0Q3PV/J4o8flbMGysQnPBB4RkCuuZT7En7wyVvPFMO6CCCAAALGGEIcuwECCCwRIMQtUUt0HWYPTLTjIqq2fAkgt7GQLwV4IIAAAgg8L0CIe96QEhC4ogAh7mK9LjcDl0E49/G6WMev0Fz5EuCVN18yf/jikxVKowgEEEAAAREgxLEfIIDAEgFC3BK1xNeR65nkdDiZVZAHAlMEfvnpO2X4l1MpeSCAAAIIrCfwt//412WQkwEZ/2HAPsA+MHUfkM+O23ofRZSUksD3P/ya+dFH30ipytT1AIGfFj803/r5V42Efx4IIIAAAggggAACcQgQ4uLoh0NqIQP0b7/3MgP0Q/Tj36iEfIJ+/P1EDRFAAAEEEEDgegKEuOv1eafFMsvg13/2ZcOpch2WS/8iR93k6JuEfB4IIIAAAggggAAC8QkQ4uLrk91r9PHnL8pJK7gFwe700W1QwrxMfiPXwfFAAAEEEEAAAQQQiFOAEBdnv+xeKwlwMvugBDoe1xSQmSdlH5CZKHkggAACCCCAAAIIxCtAiIu3b3avmRyFkVMruZHz7vSHb1Du/SZH4Dgae3hXUAEEEEAAAQQQQGBUgBA3SnStBeR6KJnshOuhrtPvEtrlthNcF3mdPqelCCCAAAIIIJC2ACEu7f7brPYyK6HchoDHuQV+8pvvMUPpubuY1iGAAAIIIIDACQUIcSfs1LWaJDcE5x5ha2nGV85333/VvP6r1+KrGDVCAAEEEEAAAQQQGBQgxA3y8KbMUijXSn3xlz+BcRIBOW1STp989+M3TtIimoEAAggggAACCFxLgBB3rf5e1FqZrVCCnMxeyCNtAQnjMnnNi89+kXZDqD0CCCCAAAIIIHBhAULchTt/TtNl1kIJcjKLIY80BTSMcwuBNPuPWiOAAAIIIIAAAipAiFMJfo4KcBreKFG0C8iRNzkCxy0Eou0iKoYAAggggAACCEwWIMRNpmJBEZBbEMiEGDKrIY80BOTaN5mghlsIpNFf1BIBBBBAAAEEEBgTIMSNCfG+V0BmNZQwJ6GOR7wC9FO8fUPNEEAAAQQQQACBpQKEuKVyrFfObsgRnjh3BI6Yxtkv1AoBBBBAAAEEEFhDgBC3huKFy+Baq/g6n2sX4+sTaoQAAggggAACCKwpQIhbU/OiZTHrYTwdzyyi8fQFNUEAAQQQQAABBLYSIMRtJXuxcrn/2PEdrmGa+/kd3xfUAAEEEEAAAQQQ2FKAELel7sXK1tP43vnd6xdr+fHN/eWn75T38ZMwzQMBBBBAAAEEEEDg3AKEuHP37yGt+/6HXzMyKyKPfQQkNMsEM8wUuo83W0EAAQQQQAABBI4WIMQd3QMn3b7cR+7b771MsNi4f3/00TeMhGYeCCCAAAIIIIAAAtcRIMRdp693b+kHn7xlvvn2V7jJ9AbyctRNQvJPix9uUDpFIoAAAggggAACCMQsQIiLuXdOULfijx+V12rJrIk81hGQaw+//rMvGwnJPBBAAAEEEEAAAQSuJ0CIu16f795imS3xlTdfMjJ7Io/nBCQMi+XHn794riDWRgABBBBAAAEEEEhWgBCXbNelVXE5enR/60tGZlHksUxAgpsEOI5qLvNjLQQQQAABBBBA4CwChLiz9GQC7ZDruGQWRa7jmt9ZcuqknEIpYZgHAggggAACCCCAwLUFCHHX7v9DWi8zKsp/PKYJSOhlps9pViyFAAIIIIAAAghcQYAQd4VejrCNEky4t9l4x8jtAwi8404sgQACCCCAAAIIXEmAEHel3o6srXJ9nFwnxymC/Y6RU0/l9gxyI28eCCCAAAIIIIAAAgjYAoQ4W4PnuwvIjJUyWYfMYMmjEvjiL38qw+2Lz34BCQIIIIAAAggggAACPQFCXI+EF/YWkNkW5Yic3FPu6g8JtWLB7RiuvifQfgQQQAABBBBAICxAiAvb8M6OAnJKpZw+eOUbWEuIlRkouYXAjjsem0IAAQQQQAABBBIUIMQl2GlnrbJcByazMP7kN987axOD7Xr34zfKEMv1gUEi3kAAAQQQQAABBBCoBQhx7ArRCbz+q9eMzMp4lcePf/0d8933XzUSYnkggAACCCCAAAIIIDAmQIgbE+L9QwRkVkY5vfLMR6YktEl4kxDHAwEEEEAAAQQQQACBqQKEuKlSLLe7gMzOKNeIyWyNZ3tIOJX75MlplDwQQAABBBBAAAEEEJgjQIibo8WyuwuccbZGmbhEwim3ENh9d2KDCCCAAAIIIIDAKQQIcafoxnM34kyh54yh9Nx7H61DAAEEEEAAAQTiEyDExdcn1MgjcIbTD898eqiny3gJAQQQQAABBBBAYCMBQtxGsBS7voBOBCKzV6b2uMJELan1CfVFAAEEEEAAAQRSFSDEpdpzF6633EcupSn5r3bLhAvvmjQdAQQQQAABBBDYRYAQtwszG1lbIIWbY1/55uVr9zflIYAAAggggAACCLQChLjWgmeJCRR//Mjc3/qSkYlPYnvINXwyA+UHn7wVW9WoDwIIIIAAAggggEDiAoS4xDvw6tX/wxeflEFOZn2M5SGhUsLlx5+/iKVK1AMBBBBAAAEEEEDgRAKEuBN15lWbIjcDl9D0y0/fOZxAgtsrb75kJFzyQAABBBBAAAEEEEBgCwFC3BaqlLm7gFx/9q2ff9XILJBHPSREyimUciolDwQQQAABBBBAAAEEthIgxG0lS7mHCHz/w6+ZH330jd23/dPih2WIlDDJAwEEEEAAAQQQQACBLQUIcVvqUvYhAhKovv3ey2avQCWh8YjgeAguG0UAAQQQQAABBBA4XIAQd3gXUIEtBGRWyK1PbdRTOCU08kAAAQQQQAABBBBAYC8BQtxe0mxndwGdZGSLWxDIdW+xTKayOywbRAABBBBAAAEEEDhUgBB3KD8b31pAApzMFrnmdP8y86SUGdNtDbZ2pHwEEEAAAQQQQACBeAQIcfH0BTXZSGDNG2/HfIPxjfgoFgEEEEAAAQQQQCAyAUJcZB1CdbYRkOvXZLKTZ65fk+vsvvn2V7iFwDZdRKkIIIAAAggggAACEwUIcROhWOwcAjKLpNyGYO7jJ7/53q4zXs6tH8sjgAACCCCAAAIIXEeAEHedvqaltYDcEFyOqE29BcF333/VvP6r1/BDAAEEEEAAAQQQQCAKAUJcFN1AJfYWePHZL8rZJb/4y5+Cm5Zr6STsvfvxG8FleAMBBBBAAAEEEEAAgb0FCHF7i7O9aARkdkm5TYBvlkmZ1VLuMydhjwcCCCCAAAIIIIAAAjEJEOJi6g3qsruAhjWZdVIfEuokwPnCnS7DTwQQQAABBBBAAAEEjhIgxB0lz3ajEbBPm5QjbxLgtrhBeDQNpiIIIIAAAggggAACSQsQ4pLuPiq/loBMcvLyP3yLWwisBUo5CCCAAAIIIIAAApsJEOI2o6Xg1ARe+fsitSpTXwQQQAABBBBAAIELChDiLtjpNNkvQIjzu/AqAggggAACCCCAQFwChLi4+oPaHChAiDsQn00jgAACCCCAAAIITBYgxE2mYsGzCxDizt7DtA8BBBBAAAEEEDiHACHuHP1IK1YQIMStgEgRCCCAAAIIIIAAApsLEOI2J2YDqQgQ4lLpKeqJAAIIIIAAAghcW4AQd+3+p/WWACHOwuApAggggAACCCCAQLQChLhou4aK7S1AiNtbnO0hgAACCCCAAAIILBEgxC1RY51TChDiTtmtNAoBBBBAAAEEEDidACHudF1Kg5YKEOKWyrEeAggggAACCCCAwJ4ChLg9tdlW1AKEuKi7h8ohgAACCCCAAAII1AKEOHYFBGoBQhy7AgIIIIAAAggggEAKAoS4FHqJOu4iQIjbhZmNIIAAAggggAACCDwpQIh7EpDVzyNAiDtPX9ISBBBAAAEEEEDgzAKEuDP3Lm2bJUCIm8XFwggggAACCCCAAAIHCRDiDoJns/EJEOLi6xNqhAACCCCAAAIIINAXIMT1TXjlogKEuIt2PM1GAAEEEEAAAQQSEyDEJdZhVHc7AULcdraUjAACCCCAAAIIILCeACFuPUtKSlxgXoh7mHt2M7fbzdyy3DwCbS/uWblMdi8CSxhjioe555nJpKzmv8xkUm4xsF64RN5BAAEEEEAAAQQQOLEAIe7EnUvT5gnMDXF5E7hu5pb7Y9xYiNP3NbxlmYS3Kvg1r+UPQ5Sb15csjQACCCCAAAIInFmAEHfm3qVtswQWhTgJXWWYy4zvYJuGNN+ROH3vdstM/ujHtOKRN0fnfOvPahwLI4AAAggggAACCJxGgBB3mq6kIc8KLAtxd/OoT5m8ZffeETMNav0Q9jB6JC9wEK9qziOvT7EMn7L5bLtZHwEEEEAAAQQQQCAtAUJcWv1FbTcUWBTibhKuiub6ODeQhUKcvu4Lft0mhsvuLsdvCCCAAAIIIIAAAlcRIMRdpadp56jA8hBnjNEjZs7ROA1r7pG4R15NYuK+7quklhG67s63Dq8hgAACCCCAAAIInFeAEHfevqVlMwWeCnHW0Tg7mGkAs18z1rLukTtflbUMQpxPh9cQQAABBBBAAIHrCRDirtfntDgg8FyIk1sF3OuJSNrr1zSAPRPimqN8UxJfoG28jAACCCCAAAIIIHAeAULcefqSljwp8HSIK8+qrO/1VgeuNUKclsGRuCc7mNURQAABBBBAAIGTCBDiTtKRNON5gTVCnDE662R1ywENYN0jcXIJ3fRr4uYs+7wCJSCAAAIIIIAAAgjELkCIi72HqN9uAuuEODmrsr5Zt9yku37uhjh9ffzoGrNT7rYDsCEEEEAAAQQQQCARAUJcIh1FNbcXWCvEdY7G3av7vLkhrr1+zn+TcG1tE/acWS/1fX4igAACCCCAAAIIXE+AEHe9PqfFAYH1Qpx1y4Fb+LRJPU3ydsvM/VE4tSram4jfboY5TRwefkUAAQQQQAABBC4sQIi7cOfT9K7AqiHOuo3A7XYzvSNx5abbUyVlmXK5LDNZVk+OUr6WmfzuBrxuvfkNAQQQQAABBBBA4FoChLhr9TetHRBYN8TZtxyQI2nhIFY87ibP6uvo6jB3kzCX383AagMt4S0EEEAAAQQQQACBMwsQ4s7cu7RtlsC8EDeraBZGAAEEEEAAAQQQQGA1AULcapQUlLoAIS71HqT+CCCAAAIIIIDANQQIcdfoZ1o5QYAQNwGJRRBAAAEEEEAAAQQOFyDEHd4FVCAWAUJcLD1BPRBAAAEEEEAAAQSGBAhxQzq8dykBQtylupvGIoAAAggggAACyQoQ4pLtOiq+tgAhbm1RykMAAQQQQAABBBDYQoAQt4UqZSYpQIhLstuoNAIIIIAAAgggcDkBQtzlupwGhwQIcSEZXkcAAQQQQAABBBCISYAQF1NvUJdDBQhxh/KzcQQQQAABBBBAAIGJAoS4iVAsdn4BQtz5+5gWIoAAAggggAACZxAgxJ2hF2nDKgKEuFUYKQQBBBBAAAEEEEBgYwFC3MbAFJ+OACEunb6ipggggAACCCCAwJUFCHFX7n3a3hEgxHU4+AUBBBBAAAEEEEAgUgFCXKQdQ7X2FyDE7W/OFhFAAAEEEEAAAQTmCxDi5puxxkkFCHEn7ViahQACCCCAAAIInEyAEHeyDqU5ywUIccvtWBMBBBBAAAEEEEBgPwFC3H7WbClyAUJc5B1E9RBAAAEEEEAAAQRKAUIcOwICtQAhjl0BAQQQQAABBBBAIAUBQlwKvUQddxEgxO3CzEYQQAABBBBAAAEEnhQgxD0JyOrnESDEnacvaQkCCCCAAAIIIHBmAULcmXuXts0SIMTN4mJhBBBAAAEEEEAAgYMECHEHwbPZ+AQIcfH1CTVCAAEEEEAAAQQQ6AsQ4vomvHIRgc+/+Gfzb3/7H5r//va/+1+b5/L6Z5//3xeRoJkIIIAAAggggAACKQkQ4lLqLeq6qoCEuP/s3/zP5l/967e9//329/9p1e1RGAIIIIAAAggggAACawgQ4tZQpIxkBf7uH/69N8D9V6+9SLZNVBwBBBBAAAEEEEDg3AKEuHP3L60bEQgdjeMo3AgcbyOAAAIIIIAAAggcJkCIO4yeDcci4B6N4yhcLD1DPRBAAAEEEEAAAQR8AoQ4nwqvXUrAPRrHUbhLdT+NRQABBBBAAAEEkhMgxCXXZVR4CwE9GsdRuC10KRMBBBBAAAEEEEBgTQFC3JqalJWsgB6N4yhcsl1IxRFAAAEEEEAAgcsIEOIu09U0dEzgvRd/GluE9xFAAAEEEEAAAQQQOFyAEHd4F1ABBBBAAAEEEEAAAQQQQGC6ACFuuhVLIoAAAggggAACCCCAAAKHC1wuxL3y5kvmb37wV/yHAfsA+8CsfUA+O3gggAACCCCAAAIxCFwuxEmA44EAAgjMFeCzY64YyyOAAAIIIIDAVgKEuK1kKRcBBE4lQIg7VXfSGAQQQAABBJIWIMQl3X1UHgEE9hIgxO0lzXYQQAABBBBAYEyAEDcmxPsIIICAMeX1c0AggAACCCCAAAIxCBDiYugF6oAAAtELcCQu+i6igggggAACCFxGgBB3ma6moQgg8IwAIe4ZPdZFAAEEEEAAgTUFCHFralIWAgicVoAQd9qupWEIIIAAAggkJ0CIS67LqDACCBwhQIg7Qp1tIoAAAggggIBPgBDnU+E1BBBAwBEgxDkg/IoAAggggAAChwkQ4g6jZ8MIIJCSACEupd6irggggAACCJxbgBB37v6ldQggsJIAIW4lSIpBAAEEEEAAgacFCHFPE1IAAghcQYAQd4Vepo0IIIAAAgikIUCIS6OfqCUCCBwsQIg7uAPYPAIIIIAAAgg0AoS4hoInCCCAQFiAEBe24R0EEEAAAQQQ2FeAELevN1tDAIFEBQhxiXYc1UYAAQQQQOCEAoS4E3YqTUIAgfUFCHHrm1IiAggggAACCCwTIMQtc2MtBBC4mAAh7mIdTnMRQAABBBCIWIAQF3HnUDUEEIhHgBAXT19QEwQQQAABBK4uQIi7+h5A+xFAYJIAIW4SEwshgAACCCCAwA4ChLgdkNkEAgikL0CIS78PaQECCCCAAAJnESDEnaUnaQcCCGwqQIjblJfCEUAAAQQQQGCGACFuBhaLIoDAdQUIcdfte1qOAAIIIIBAbAKEuNh6hPoggECUAoS4KLuFSiGAAAIIIHBJAULcJbudRiOAwFwBQtxcMZZHAAEEEEAAga0ECHFbyVIuAgicSoAQd6rupDEIIIAAAggkLUCIS7r7qDwCCOwlQIjbS5rtIIAAAggggMCYACFuTGjN94u7yW43c8sfa5ZKWQggsIMAIW4HZDaBAAIIIIAAApMECHGTmMYWKswjz6qAJiHtdjNZlpv7o+iuSIjrevAbAgkJEOIS6iyqigACCCCAwMkFCHFPd/DD5HVwu2WZyfPc5HlWBjkJc52DboS4p7XjLKAw90zCe2buTm6Ps75r1Op6bSbErbHfUAYCCCCAAAIIrCFAiHtSsbjXga2T1owxxcPcJdTZZ04S4p7UjnX16wUaY67XZkJcrH9/1AsBBBBAAIHrCRDinupzHcg6R9xCZRLiQjKJv677AUfiEu/IweoT4gZ5eBMBBBBAAAEEdhQgxD2J/cjra+CmnEfXCXGFuVunXd7kGrqBU/GKx93kWXuapl535152Zx55dSpn5xBg1cjgUUM5cFgfUcyGKlEeYJR6VG2WOsgphFn+MG7Vi0duMns5OSp5t5arLcrtFVaZ2d10Dl6W7e5ur1OO03+V04TlO9t/zOoLe5Pa/5WFvd1+sJ/ch/YGPM9HbWWdInCdpttR5bLVhDtV3///7d3r8ao4Awdg67KN7cEetgtr2Q82YzHsBAiEGFAU/XN53pkzRxFyecK+k98Jl+y8PIXV5OFBL/V54jys4n8H5+vwvBmMyXLnRIHwrU1C3FtsDiJAgAABAgS+ICDEfYoaJ6uFye5D0d3kNT4Epb2Hrgtn5ZWcGLDq4Fbfc3cZBKlhXov36F0GYSi0pZt855Pn7rdy/V0/kr6eu3acq1NWXldPHfDCPYKX7qEvXVvjhD35rQl9fbv7foegOCwnrzO0cdb+D/W/NhadRfuhDmZpH6LL5Vql2adv26nrSxqGO5e8guz7S7a39imo7QN26vs0p86xgkXj3f+jQRruX+pzPFdKHev+OxgJcaln/Q8B758TGd9HX4W4j/gcTIAAAQIECCwoIMQtgBmeTNmvxDQrF8O1i7aSOHltXzOQ7tNN8vNJb5wMny6DUBBKDCsyTb39JDdsjxP9YVEx3DWrZ8MFt/a3LIwNaV68ZDC26TxsU9PeJNikFqV64+8Pv4UVpmbFa9C/d/efMxZDkOTbE5toMmMMk8L7j7GcZ7ZhFTQLkaGQ0XMs2hUsupXd0Pa+JaG06Ye5xLYOBqktINaXj23cHtqR/9Z0oPnHgIffRs6JQXs//yLEfW6oBAIECBAgQGAZASFuGceqeBlfuhQT6omT1IdJ6PhvxcCStLn0e3Gy3k6qw6pMvaKXpripCXdX15NJe7tfqT1dEemHaPEQDpqdJsuJxyYBYe7+74xF2vzh52mbybaNhu5hDeHbs3Iej8i2FNzqPeL20nnZhbX88tDpPnfhLxmjrjVj9cXtC50TXX0LfRDiFoJUDAECBAgQIPCxgBD3MeGwgPv9NrjUMb0MrQsOpYltVVoNezJRTlZXivUkk/Im2IXLJR/reTkcxLAX74NLlxJrhuft7bTihL1oEctJLj3sLlNMXuHQ9W/u/kloLtb/aNS1u/gh1l+6HHXqt6awGLoHY/hQz/NyHg+5V7dwT2FnN/Yk1fbyy6JFHx6H7XvSnniulMqMY9+NX9vyuL10TBIm46W1fb9K58SDxscbhLiPCRVAgAABAgQILCQgxC0EmRcTJ+andFVhcpJaCg7ttrSMrKKunsHEN59gt9/rSXP8LV4el3/PKsi+Pqw4hkv7ujD3vL1dcZMWsU3DB4X0l6y227sQMHf/X4a45yblMeyk2g/Py+mPyB9OkjkOzpVnFv1lmGsJcQ/nQbj8Mv7pzoleY6lPQtxSksohQIAAAQIEPhUQ4j4VHD0+TrqT1ZnJ4NLuP5iExnCSlJHVFwPAcIKdTbzbeuM+8Zh6Lj/Zpqyy9Gv79MNm8hzb97y9XRGT9c4opy5w7v7PgktpLLqWFz5M1T/1W1NUHI84PoUKQoOn70FLDoorq+G+sj5gT/R5cizWthIXz7Wkwz/6KMT9CFo1BAgQIECAwFMBIe4p0bs7LBHi+gl0vnjStCpO7PP7lZIJewiF8X64+GSKZNIeA0S5/Od9z4+PAeJpeUkbSrW8XE578Nz951/aWmpl3BbHoRwwptsWjy2MYSx+Vh9jeYW2jJmPba/rjeXl7YvbC/WE42KZg3+UaDsy9lvcPnLyTDu2ZX/xLyHui7iKJkCAAAECBGYJCHGzuLKdw6QzvN9tsNwR9umfljd4yt7kJHVk9SfeWxQuqewuW2zaEcPZoI6uiXGSHe4XCpebxcsnm/Zd20e3N4+5T3/rCsg+hHv9HtuQT6xjqCu16X679X2YtKif4tFcIlcKAUH4lq0yRadX95+sf2QsMpH0a+6Q/tY95GP2GA5K6Z8uWehjbxvHPQ9XyTmZh6RoUXg65dQ5NtnneI/nKWtHvCez9ATK2I68fZFh7hjH4xb6W4hbCFIxBAgQIECAwMcCQtwnhHHS2d2Pc67O3fu4QnDKJ7DX5hHpxUnqeHCIk+Vw6WL3UIfuRdpZHUl/ukDVTs6Tn7onHdaXQxbbk+4dPseVxVMdXJt3j7X3Ig1CRQwRTf9je8+tUVdVtOs25PX1q5B1v8/Ne+Iuyesc8kMHTs/2n6x/fCweW9ls6a37982l7Ru0LT5o5IUxHNb3mm3alvi+t+hfHO9ocR57f2G+Cje3z/E9f+2DVWI9g/MmWb1L4YYAg/M2/ANK83CT/hUfE4dmJc3/KsTNN3MEAQIECBAg8B0BIe5T1/utul7i5LcNNfHpjXnZcbJcnGlOB4ewItK8DDutI1uNGqsvhL/0lQJhv7iqcSpP0POi6u9tX+sgUIeyMDm/VdkCYbMSee1f8F3vfz5Xl2uy76RFX3ux3/WK4GOt4aiX95+sf3os+tYNPw3fF3ipcvJi2wrvcxuWmn+7V7dntnUeGvqHwHOLq2D5+Zda1E9X7UPRqbD6mrZous95W+M5MOKbtiOtJPtcdJw4J7LD3/4qxL1N50ACBAgQIEBgYQEhbmFQxRHYnMCL4Wlz/Vq4wULcwqCKI0CAAAECBN4WEOLepnMggZ0ICHEvDaQQ9xKTnQgQINSPg3kAAAc1SURBVECAAIEfCAhxP0BWBYFVCwhxLw2PEPcSk50IECBAgACBHwgIcT9AVgWBVQsIcS8NjxD3EpOdCBAgQIAAgR8ICHE/QFYFAQLbFxDitj+GekCAAAECBPYiIMTtZST1gwCBrwoIcV/lVTgBAgQIECAwQ0CIm4FlVwIEjisgxB137PWcAAECBAisTUCIW9uIaA8BAqsUEOJWOSwaRYAAAQIEDikgxB1y2HWaAIG5AkLcXDH7EyBAgAABAt8SEOK+JatcAgR2JSDE7Wo4dYYAAQIECGxaQIjb9PBpPAECvxIQ4n4lrR4CBAgQIEDgmYAQ90zI7wQIEKiqSohzGhAgQIAAAQJrERDi1jIS2kGAwKoFhLhVD4/GESBAgACBQwkIcYca7p119n6v7gt26X67VOfTqTrVf87V5bZk6Qs2VFF/IiDE/Qm7SgkQIECAAIGCgBBXQLFpAwK3Sxu2LtVtieber22AO1fny6W6XM7V+SrELUG7lzKEuL2MpH4QIECAAIHtCwhx2x/DY/YghrjzdZHVuPv1XIfCyyKJ8JhDsvdeC3F7H2H9I0CAAAEC2xEQ4rYzVlr6RYHbpbmMUoj7IvLGixbiNj6Amk+AAAECBHYkIMTtaDB15X0BIe59u6McKcQdZaT1kwABAgQIrF9AiFv/GGlhSSDew5YvnbXb6/vZ7rfqemkuk6wfVnK+VPltbvEyyuZhJvGhJuHv/l67++1aXc5JOadTdT5fKs89KQ3MfrcJcfsdWz0jQIAAAQJbExDitjZi2tsIPAtxl/ikyXN1CQ8q6ULYeRjkQkAL+56bABfCWb3/5Vbfa5eGvOaBJ6GsPuzlGdLw7FdAiNvv2OoZAQIECBDYmoAQt7UR095G4EmIq1fW2iAWybpAVkhexcsp48NTwqpc9qDK8DqCZvWuX7GL9fh7nwJC3D7HVa8IECBAgMAWBYS4LY6aNlfVsxBXemplPKbwWynElbal9M9+T/f1efsCQtz2x1APCBAgQIDAXgSEuL2M5NH6EQNZvqo2tr32uVWX8CLvl0LcvbrWl01ml18mznFlz/vkEpQdfxTidjy4ukaAAAECBDYmIMRtbMA0txUYC2tj2+vD5oS4dt/kASe5fQxxpzxI5jv6vgsBIW4Xw6gTBAgQIEBgFwJC3C6G8YCdGAtrY9trojkhzkrcAc+qyS4LcZM8fiRAgAABAgR+KCDE/RBbVQsKjIW1se111XNCXFVN3/MWQ96pshC34LiuuCghbsWDo2kECBAgQOBgAkLcwQZ8N90dC2tj2+uOzwtxVfoEyrGnUz7cXxcvwxy/l243Y3CwjghxBxtw3SVAgAABAisWEOJWPDiaNiEwFtbGttdFzQxxVb8aF14n8PieuEJQi/WfrNBNjN4mfxLiNjlsGk2AAAECBHYpIMTtclgP0KkYlvJrGce21yTzQ1w4LLwTLr4MvHk33Lk6X64P746rq7hbidvr2SfE7XVk9YsAAQIECGxPQIjb3phpMQECfyAgxP0BuioJECBAgACBooAQV2SxkQABAkMBIW7o4RsBAgQIECDwdwJC3N/Zq5kAgQ0JCHEbGixNJUCAAAECOxcQ4nY+wLpHgMAyAkLcMo5KIUCAAAECBD4XEOI+N1QCAQIHEBDiDjDIukiAAAECBDYiIMRtZKA0kwCBvxUQ4v7WX+0ECBAgQIBALyDE9RY+ESBAYFRAiBul8QMBAgQIECDwYwEh7sfgqiNAYJsCQtw2x02rCRAgQIDAHgWEuD2Oqj4RILC4gBC3OKkCCRAgQIAAgTcFhLg34RxGgMCxBIS4Y4233hIgQIAAgTULCHFrHh1tI0BgNQJC3GqGQkMIECBAgMDhBYS4w58CAAgQeEVAiHtFyT4ECBAgQIDALwSEuF8oq4MAgc0LCHGbH0IdIECAAAECuxEQ4nYzlDpCgMA3BYS4b+oqmwABAgQIEJgjIMTN0bIvAQKHFRDiDjv0Ok6AAAECBFYnIMStbkg0iACBNQoIcWscFW0iQIAAAQLHFBDijjnuek2AwEwBIW4mmN0JECBAgACBrwkIcV+jVTABAnsSEOL2NJr6QoAAAQIEti0gxG17/LSeAIEfCQhxP4JWDQECBAgQIPBUQIh7SmQHAgQIVJUQ5ywgQIAAAQIE1iIgxK1lJLSDAIFVCwhxqx4ejSNAgAABAocSEOIONdw6S4DAuwJC3LtyjiNAgAABAgSWFhDilhZVHgECuxQQ4nY5rDpFgAABAgQ2KSDEbXLYNJoAgV8LCHG/FlcfAQIECBAgMCYgxI3J2E6AAIFEQIhLMHwkQIAAAQIE/lRAiPtTfpUTILAVASFuKyOlnQQIECBAYP8CQtz+x1gPCRBYQECIWwBREQQIECBAgMAiAkLcIowKIUBg7wJC3N5HWP8IECBAgMB2BA4X4v7975/6pb1hQuYPA+eAc+DVcyD8f4f/ESBAgAABAgTWIPA//5BmLiiWSGkAAAAASUVORK5CYII=;" vertex="1" parent="WIyWlLk6GJQsqaUBKTNV-1">
          <mxGeometry x="590" y="-90" width="511" height="364.25" as="geometry" />
        </mxCell>
        <mxCell id="rxBr7AJf67-IRz6fNQBS-1" value="Read Mobile Number and Email from User" style="rounded=1;whiteSpace=wrap;html=1;fontSize=12;glass=0;strokeWidth=1;shadow=0;" vertex="1" parent="WIyWlLk6GJQsqaUBKTNV-1">
          <mxGeometry x="160" y="-10" width="120" height="40" as="geometry" />
        </mxCell>
        <mxCell id="rxBr7AJf67-IRz6fNQBS-2" value="" style="rounded=0;html=1;jettySize=auto;orthogonalLoop=1;fontSize=11;endArrow=block;endFill=0;endSize=8;strokeWidth=1;shadow=0;labelBackgroundColor=none;edgeStyle=orthogonalEdgeStyle;" edge="1" parent="WIyWlLk6GJQsqaUBKTNV-1">
          <mxGeometry relative="1" as="geometry">
            <mxPoint x="219.5" y="30" as="sourcePoint" />
            <mxPoint x="219.5" y="80" as="targetPoint" />
          </mxGeometry>
        </mxCell>
        <mxCell id="rxBr7AJf67-IRz6fNQBS-4" value="" style="rounded=0;html=1;jettySize=auto;orthogonalLoop=1;fontSize=11;endArrow=block;endFill=0;endSize=8;strokeWidth=1;shadow=0;labelBackgroundColor=none;edgeStyle=orthogonalEdgeStyle;" edge="1" parent="WIyWlLk6GJQsqaUBKTNV-1">
          <mxGeometry relative="1" as="geometry">
            <mxPoint x="219.5" y="330" as="sourcePoint" />
            <mxPoint x="219.5" y="380" as="targetPoint" />
          </mxGeometry>
        </mxCell>
        <mxCell id="rxBr7AJf67-IRz6fNQBS-7" value="" style="rounded=0;html=1;jettySize=auto;orthogonalLoop=1;fontSize=11;endArrow=block;endFill=0;endSize=8;strokeWidth=1;shadow=0;labelBackgroundColor=none;edgeStyle=orthogonalEdgeStyle;entryX=0.838;entryY=-0.06;entryDx=0;entryDy=0;entryPerimeter=0;" edge="1" parent="WIyWlLk6GJQsqaUBKTNV-1" target="WIyWlLk6GJQsqaUBKTNV-12">
          <mxGeometry relative="1" as="geometry">
            <mxPoint x="340" y="230" as="sourcePoint" />
            <mxPoint x="340" y="280" as="targetPoint" />
          </mxGeometry>
        </mxCell>
        <mxCell id="rxBr7AJf67-IRz6fNQBS-8" value="Save in DB" style="rounded=1;whiteSpace=wrap;html=1;fontSize=12;glass=0;strokeWidth=1;shadow=0;" vertex="1" parent="WIyWlLk6GJQsqaUBKTNV-1">
          <mxGeometry x="170" y="490" width="120" height="40" as="geometry" />
        </mxCell>
        <mxCell id="rxBr7AJf67-IRz6fNQBS-9" value="" style="rounded=0;html=1;jettySize=auto;orthogonalLoop=1;fontSize=11;endArrow=block;endFill=0;endSize=8;strokeWidth=1;shadow=0;labelBackgroundColor=none;edgeStyle=orthogonalEdgeStyle;" edge="1" parent="WIyWlLk6GJQsqaUBKTNV-1">
          <mxGeometry relative="1" as="geometry">
            <mxPoint x="219.5" y="440" as="sourcePoint" />
            <mxPoint x="219.5" y="490" as="targetPoint" />
          </mxGeometry>
        </mxCell>
      </root>
    </mxGraphModel>
  </diagram>
</mxfile>
